<svg version="1.1" viewBox="0.0 0.0 1319.2020997375328 533.8845144356956" fill="none" stroke="none" stroke-linecap="square" stroke-miterlimit="10" xmlns:xlink="http://www.w3.org/1999/xlink" xmlns="http://www.w3.org/2000/svg"><clipPath id="p.0"><path d="m0 0l1319.2021 0l0 533.8845l-1319.2021 0l0 -533.8845z" clip-rule="nonzero"/></clipPath><g clip-path="url(#p.0)"><path fill="#000000" fill-opacity="0.0" d="m0 0l1319.2021 0l0 533.8845l-1319.2021 0z" fill-rule="evenodd"/><path fill="#cfe2f3" d="m19.667322 218.928l0 0c0 -4.8764343 3.9531345 -8.829575 8.829573 -8.829575l200.48257 0c2.341751 0 4.5875854 0.93026733 6.243454 2.5861206c1.6558685 1.6558685 2.5861206 3.901703 2.5861206 6.243454l0 35.31723c0 4.8764496 -3.953125 8.829575 -8.829575 8.829575l-200.48257 0c-4.876438 0 -8.829573 -3.953125 -8.829573 -8.829575z" fill-rule="evenodd"/><path stroke="#000000" stroke-width="1.0" stroke-linejoin="round" stroke-linecap="butt" d="m19.667322 218.928l0 0c0 -4.8764343 3.9531345 -8.829575 8.829573 -8.829575l200.48257 0c2.341751 0 4.5875854 0.93026733 6.243454 2.5861206c1.6558685 1.6558685 2.5861206 3.901703 2.5861206 6.243454l0 35.31723c0 4.8764496 -3.953125 8.829575 -8.829575 8.829575l-200.48257 0c-4.876438 0 -8.829573 -3.953125 -8.829573 -8.829575z" fill-rule="evenodd"/><path fill="#cfe2f3" d="m19.667322 280.3217l0 0c0 -4.8764343 3.9531345 -8.829559 8.829573 -8.829559l200.48257 0c2.341751 0 4.5875854 0.93026733 6.243454 2.5861206c1.6558685 1.6558533 2.5861206 3.901703 2.5861206 6.2434387l0 35.31723c0 4.876465 -3.953125 8.82959 -8.829575 8.82959l-200.48257 0c-4.876438 0 -8.829573 -3.953125 -8.829573 -8.82959z" fill-rule="evenodd"/><path stroke="#000000" stroke-width="1.0" stroke-linejoin="round" stroke-linecap="butt" d="m19.667322 280.3217l0 0c0 -4.8764343 3.9531345 -8.829559 8.829573 -8.829559l200.48257 0c2.341751 0 4.5875854 0.93026733 6.243454 2.5861206c1.6558685 1.6558533 2.5861206 3.901703 2.5861206 6.2434387l0 35.31723c0 4.876465 -3.953125 8.82959 -8.829575 8.82959l-200.48257 0c-4.876438 0 -8.829573 -3.953125 -8.829573 -8.82959z" fill-rule="evenodd"/><path fill="#000000" d="m68.74067 304.9003l1.6875 0l0 -7.0625q0.171875 -0.328125 0.40625 -0.59375q0.234375 -0.265625 0.515625 -0.453125q0.328125 -0.234375 0.71875 -0.359375q0.40625 -0.140625 0.875 -0.140625q0.546875 0 0.953125 0.125q0.421875 0.125 0.703125 0.40625q0.28125 0.296875 0.421875 0.75q0.15625 0.453125 0.15625 1.109375l0 6.21875l1.6875 0l0 -6.265625q0 -0.96875 -0.25 -1.6875q-0.234375 -0.71875 -0.6875 -1.1875q-0.4375 -0.453125 -1.078125 -0.671875q-0.625 -0.21875 -1.40625 -0.21875q-0.5625 0 -1.078125 0.171875q-0.515625 0.15625 -0.953125 0.4375q-0.296875 0.1875 -0.5625 0.453125q-0.25 0.265625 -0.46875 0.5625l-0.125 -1.453125l-1.515625 0l0 9.859375zm15.554947 0.1875q1.4375 0 2.421875 -0.578125q0.984375 -0.578125 1.46875 -1.328125l-1.03125 -0.796875q-0.46875 0.59375 -1.171875 0.96875q-0.6875 0.359375 -1.59375 0.359375q-0.6875 0 -1.25 -0.25q-0.5625 -0.265625 -0.96875 -0.71875q-0.390625 -0.40625 -0.609375 -0.953125q-0.21875 -0.546875 -0.28125 -1.265625l0 -0.078125l7.03125 0l0 -0.75q0 -1.03125 -0.265625 -1.90625q-0.25 -0.890625 -0.78125 -1.546875q-0.53125 -0.640625 -1.328125 -1.0q-0.796875 -0.375 -1.859375 -0.375q-0.84375 0 -1.65625 0.34375q-0.796875 0.34375 -1.4375 0.984375q-0.625 0.65625 -1.015625 1.609375q-0.375 0.9375 -0.375 2.125l0 0.390625q0 1.03125 0.34375 1.90625q0.34375 0.875 0.96875 1.5q0.609375 0.640625 1.484375 1.0q0.875 0.359375 1.90625 0.359375zm-0.21875 -8.84375q0.65625 0 1.125 0.234375q0.46875 0.234375 0.765625 0.625q0.3125 0.375 0.484375 0.90625q0.171875 0.515625 0.171875 0.984375l0 0.078125l-5.296875 0q0.09375 -0.6875 0.34375 -1.203125q0.265625 -0.53125 0.625 -0.890625q0.359375 -0.359375 0.8125 -0.546875q0.453125 -0.1875 0.96875 -0.1875zm8.008072 8.65625l1.328125 0l1.53125 -6.046875l0.234375 -1.515625l0.265625 1.515625l1.53125 6.046875l1.328125 0l2.09375 -9.859375l-1.484375 0l-1.09375 6.28125l-0.25 1.5625l-0.265625 -1.5625l-1.5625 -6.28125l-1.09375 0l-1.5625 6.28125l-0.25 1.421875l-0.203125 -1.421875l-1.140625 -6.28125l-1.5 0l2.09375 9.859375zm23.344269 -1.4375l0 -11.828125l-1.6875 0l0 13.265625l8.171875 0l0 -1.4375l-6.484375 0zm15.773689 1.4375l1.75 0l0 -0.140625q-0.15625 -0.421875 -0.25 -0.96875q-0.09375 -0.546875 -0.09375 -1.046875l0 -4.578125q0 -0.828125 -0.296875 -1.4375q-0.296875 -0.625 -0.8125 -1.046875q-0.53125 -0.40625 -1.25 -0.609375q-0.71875 -0.203125 -1.5625 -0.203125q-0.9218674 0 -1.6562424 0.25q-0.71875 0.25 -1.21875 0.65625q-0.5 0.421875 -0.78125 0.953125q-0.265625 0.515625 -0.265625 1.046875l1.6875 0q0 -0.3125 0.140625 -0.59375q0.15625 -0.28125 0.4375 -0.5q0.265625 -0.203125 0.65625 -0.328125q0.40624237 -0.140625 0.9062424 -0.140625q0.546875 0 0.96875 0.140625q0.4375 0.140625 0.734375 0.390625q0.296875 0.25 0.453125 0.609375q0.171875 0.34375 0.171875 0.796875l0 0.78125l-1.828125 0q-1.03125 0 -1.8749924 0.203125q-0.828125 0.1875 -1.421875 0.59375q-0.59375 0.40625 -0.921875 1.015625q-0.3125 0.609375 -0.3125 1.421875q0 0.625 0.234375 1.15625q0.25 0.53125 0.6875 0.90625q0.4375 0.40625 1.0625 0.640625q0.640625 0.21875 1.4375 0.21875q0.46874237 0 0.8906174 -0.109375q0.4375 -0.09375 0.828125 -0.265625q0.375 -0.171875 0.6875 -0.390625q0.3125 -0.234375 0.5625 -0.5q0.03125 0.3125 0.09375 0.609375q0.0625 0.28125 0.15625 0.46875zm-2.984375 -1.28125q-0.48436737 0 -0.8593674 -0.125q-0.375 -0.140625 -0.625 -0.359375q-0.234375 -0.21875 -0.359375 -0.53125q-0.125 -0.3125 -0.125 -0.671875q0 -0.390625 0.140625 -0.6875q0.140625 -0.296875 0.40625 -0.515625q0.390625 -0.3125 1.03125 -0.453125q0.6562424 -0.15625 1.5312424 -0.15625l1.5625 0l0 2.0q-0.140625 0.28125 -0.40625 0.5625q-0.25 0.265625 -0.59375 0.46875q-0.34375 0.203125 -0.78125 0.34375q-0.421875 0.125 -0.921875 0.125zm8.476822 -8.578125l-1.515625 0l0 9.859375l1.609375 0l0 -7.84375q0.046875 -0.140625 0.125 -0.265625q0.09375 -0.140625 0.21875 -0.234375q0.15625 -0.125 0.375 -0.1875q0.21875 -0.078125 0.53125 -0.078125q0.265625 0 0.46875 0.078125q0.203125 0.0625 0.34375 0.203125q0.15625 0.15625 0.21875 0.390625q0.0625 0.234375 0.0625 0.546875l0 7.390625l1.609375 0l0 -7.375q0 -0.0625 0 -0.09375q0 -0.046875 0 -0.09375q0.03125 -0.21875 0.109375 -0.40625q0.078125 -0.1875 0.21875 -0.34375q0.15625 -0.125 0.375 -0.203125q0.21875 -0.09375 0.515625 -0.09375q0.28125 0 0.484375 0.078125q0.21875 0.0625 0.375 0.21875q0.140625 0.15625 0.203125 0.390625q0.078125 0.234375 0.078125 0.546875l0 7.375l1.59375 0l0 -7.359375q0 -0.71875 -0.171875 -1.234375q-0.15625 -0.53125 -0.453125 -0.859375q-0.28125 -0.28125 -0.703125 -0.421875q-0.40625 -0.15625 -0.921875 -0.15625q-0.359375 0 -0.6875 0.09375q-0.3125 0.09375 -0.5625 0.25q-0.203125 0.125 -0.375 0.3125q-0.171875 0.1875 -0.296875 0.390625q-0.109375 -0.21875 -0.25 -0.40625q-0.140625 -0.1875 -0.3125 -0.3125q-0.234375 -0.15625 -0.546875 -0.234375q-0.3125 -0.09375 -0.703125 -0.09375q-0.6875 0 -1.1875 0.296875q-0.484375 0.28125 -0.78125 0.8125l-0.046875 -0.9375zm18.773712 5.046875l0 -0.203125q0 -0.765625 -0.125 -1.453125q-0.125 -0.703125 -0.375 -1.28125q-0.234375 -0.515625 -0.546875 -0.921875q-0.3125 -0.421875 -0.703125 -0.703125q-0.4375 -0.3125 -0.984375 -0.484375q-0.53125 -0.171875 -1.15625 -0.171875q-0.515625 0 -0.953125 0.09375q-0.43751526 0.09375 -0.79689026 0.296875q-0.296875 0.15625 -0.5625 0.375q-0.25 0.203125 -0.453125 0.46875l0 -5.203125l-1.6875 0l0 14.0l1.546875 0l0.078125 -1.125q0.171875 0.21875 0.34375 0.390625q0.1875 0.171875 0.390625 0.3125q0.421875 0.296875 0.93751526 0.453125q0.53125 0.15625 1.171875 0.15625q0.546875 0 1.015625 -0.140625q0.484375 -0.140625 0.890625 -0.390625q0.5625 -0.34375 0.953125 -0.890625q0.390625 -0.546875 0.640625 -1.21875q0.1875 -0.53125 0.28125 -1.125q0.09375 -0.59375 0.09375 -1.234375zm-1.6875 -0.203125l0 0.203125q0 0.4375 -0.0625 0.859375q-0.046875 0.40625 -0.15625 0.78125q-0.15625 0.46875 -0.40625 0.875q-0.234375 0.390625 -0.609375 0.640625q-0.265625 0.203125 -0.609375 0.3125q-0.34375 0.09375 -0.765625 0.09375q-0.4375 0 -0.8125 -0.109375q-0.35939026 -0.109375 -0.64064026 -0.328125q-0.296875 -0.203125 -0.53125 -0.484375q-0.21875 -0.28125 -0.375 -0.609375l0 -4.3125q0.15625 -0.328125 0.375 -0.59375q0.21875 -0.28125 0.515625 -0.5q0.28125 -0.1875 0.64064026 -0.296875q0.375 -0.125 0.8125 -0.125q0.390625 0 0.71875 0.09375q0.328125 0.09375 0.59375 0.25q0.390625 0.234375 0.65625 0.640625q0.265625 0.390625 0.421875 0.875q0.125 0.390625 0.171875 0.84375q0.0625 0.4375 0.0625 0.890625zm4.2111816 0l0 0.203125q0 1.046875 0.28125 1.96875q0.28125 0.90625 0.796875 1.59375q0.5 0.671875 1.21875 1.0625q0.734375 0.375 1.625 0.375q0.921875 0 1.59375 -0.3125q0.6875 -0.3125 1.1875 -0.90625l0.0625 1.03125l1.546875 0l0 -14.0l-1.6875 0l0 5.125q-0.46875 -0.578125 -1.140625 -0.859375q-0.65625 -0.296875 -1.546875 -0.296875q-0.890625 0 -1.625 0.375q-0.734375 0.359375 -1.234375 1.03125q-0.515625 0.65625 -0.796875 1.59375q-0.28125 0.921875 -0.28125 2.015625zm1.6875 0.203125l0 -0.203125q0 -0.71875 0.15625 -1.359375q0.15625 -0.65625 0.484375 -1.15625q0.3125 -0.5 0.8125 -0.78125q0.515625 -0.296875 1.21875 -0.296875q0.828125 0 1.375 0.390625q0.5625 0.390625 0.890625 0.984375l0 4.578125q-0.328125 0.640625 -0.890625 1.03125q-0.546875 0.375 -1.390625 0.375q-0.703125 0 -1.203125 -0.28125q-0.5 -0.296875 -0.8125 -0.78125q-0.328125 -0.5 -0.484375 -1.140625q-0.15625 -0.640625 -0.15625 -1.359375zm16.304962 4.8125l1.75 0l0 -0.140625q-0.15625 -0.421875 -0.25 -0.96875q-0.09375 -0.546875 -0.09375 -1.046875l0 -4.578125q0 -0.828125 -0.296875 -1.4375q-0.296875 -0.625 -0.8125 -1.046875q-0.53125 -0.40625 -1.25 -0.609375q-0.71875 -0.203125 -1.5625 -0.203125q-0.921875 0 -1.65625 0.25q-0.71875 0.25 -1.21875 0.65625q-0.5 0.421875 -0.78125 0.953125q-0.265625 0.515625 -0.265625 1.046875l1.6875 0q0 -0.3125 0.140625 -0.59375q0.15625 -0.28125 0.4375 -0.5q0.265625 -0.203125 0.65625 -0.328125q0.40625 -0.140625 0.90625 -0.140625q0.546875 0 0.96875 0.140625q0.4375 0.140625 0.734375 0.390625q0.296875 0.25 0.453125 0.609375q0.171875 0.34375 0.171875 0.796875l0 0.78125l-1.828125 0q-1.03125 0 -1.875 0.203125q-0.828125 0.1875 -1.421875 0.59375q-0.59375 0.40625 -0.921875 1.015625q-0.3125 0.609375 -0.3125 1.421875q0 0.625 0.234375 1.15625q0.25 0.53125 0.6875 0.90625q0.4375 0.40625 1.0625 0.640625q0.640625 0.21875 1.4375 0.21875q0.46875 0 0.890625 -0.109375q0.4375 -0.09375 0.828125 -0.265625q0.375 -0.171875 0.6875 -0.390625q0.3125 -0.234375 0.5625 -0.5q0.03125 0.3125 0.09375 0.609375q0.0625 0.28125 0.15625 0.46875zm-2.984375 -1.28125q-0.484375 0 -0.859375 -0.125q-0.375 -0.140625 -0.625 -0.359375q-0.234375 -0.21875 -0.359375 -0.53125q-0.125 -0.3125 -0.125 -0.671875q0 -0.390625 0.140625 -0.6875q0.140625 -0.296875 0.40625 -0.515625q0.390625 -0.3125 1.03125 -0.453125q0.65625 -0.15625 1.53125 -0.15625l1.5625 0l0 2.0q-0.140625 0.28125 -0.40625 0.5625q-0.25 0.265625 -0.59375 0.46875q-0.34375 0.203125 -0.78125 0.34375q-0.421875 0.125 -0.921875 0.125zm13.164307 1.28125l0 -13.265625l-0.125 0l-5.03125 1.9375l0 1.53125l3.46875 -1.3125l0 11.109375l1.6875 0z" fill-rule="nonzero"/><path fill="#cfe2f3" d="m19.667322 341.7154l0 0c0 -4.8764343 3.9531345 -8.829559 8.829573 -8.829559l200.48257 0c2.341751 0 4.5875854 0.9302368 6.243454 2.5861206c1.6558685 1.6558533 2.5861206 3.901703 2.5861206 6.2434387l0 35.31723c0 4.8764343 -3.953125 8.82959 -8.829575 8.82959l-200.48257 0c-4.876438 0 -8.829573 -3.9531555 -8.829573 -8.82959z" fill-rule="evenodd"/><path stroke="#000000" stroke-width="1.0" stroke-linejoin="round" stroke-linecap="butt" d="m19.667322 341.7154l0 0c0 -4.8764343 3.9531345 -8.829559 8.829573 -8.829559l200.48257 0c2.341751 0 4.5875854 0.9302368 6.243454 2.5861206c1.6558685 1.6558533 2.5861206 3.901703 2.5861206 6.2434387l0 35.31723c0 4.8764343 -3.953125 8.82959 -8.829575 8.82959l-200.48257 0c-4.876438 0 -8.829573 -3.9531555 -8.829573 -8.82959z" fill-rule="evenodd"/><path fill="#c9daf8" d="m303.78674 81.808395l258.74017 0l0 370.2677l-258.74017 0z" fill-rule="evenodd"/><path stroke="#000000" stroke-width="1.0" stroke-linejoin="round" stroke-linecap="butt" d="m303.78674 81.808395l258.74017 0l0 370.2677l-258.74017 0z" fill-rule="evenodd"/><path fill="#000000" fill-opacity="0.0" d="m303.78674 81.808395l258.74017 0l0 46.86615l-258.74017 0z" fill-rule="evenodd"/><path stroke="#000000" stroke-width="1.0" stroke-linejoin="round" stroke-linecap="butt" d="m303.78674 81.808395l258.74017 0l0 46.86615l-258.74017 0z" fill-rule="evenodd"/><path fill="#000000" d="m417.99615 112.5684l0 -16.109375l-1.9375 0l0 6.921875l-6.609375 0l0 -6.921875l-1.921875 0l0 16.109375l1.921875 0l0 -7.4375l6.609375 0l0 7.4375l1.9375 0zm8.783447 0.21875q1.734375 0 2.921875 -0.703125q1.203125 -0.703125 1.796875 -1.609375l-1.25 -0.96875q-0.5625 0.734375 -1.421875 1.171875q-0.84375 0.4375 -1.9375 0.4375q-0.828125 0 -1.515625 -0.296875q-0.6875 -0.3125 -1.171875 -0.859375q-0.484375 -0.515625 -0.75 -1.171875q-0.265625 -0.671875 -0.34375 -1.546875l0 -0.078125l8.546875 0l0 -0.90625q0 -1.25 -0.328125 -2.328125q-0.3125 -1.078125 -0.953125 -1.875q-0.640625 -0.78125 -1.609375 -1.21875q-0.96875 -0.453125 -2.25 -0.453125q-1.03125 0 -2.015625 0.421875q-0.984375 0.421875 -1.734375 1.203125q-0.78125 0.796875 -1.25 1.9375q-0.453125 1.140625 -0.453125 2.59375l0 0.46875q0 1.25 0.40625 2.3125q0.421875 1.0625 1.1875 1.828125q0.75 0.78125 1.796875 1.21875q1.0625 0.421875 2.328125 0.421875zm-0.265625 -10.734375q0.78125 0 1.34375 0.296875q0.578125 0.28125 0.953125 0.75q0.375 0.46875 0.578125 1.109375q0.21875 0.625 0.21875 1.1875l0 0.09375l-6.4375 0q0.125 -0.828125 0.421875 -1.46875q0.3125 -0.640625 0.75 -1.078125q0.4375 -0.4375 0.984375 -0.65625q0.5625 -0.234375 1.1875 -0.234375zm16.439728 10.515625l2.125 0l0 -0.171875q-0.203125 -0.5 -0.3125 -1.171875q-0.109375 -0.671875 -0.109375 -1.265625l0 -5.5625q0 -1.015625 -0.359375 -1.765625q-0.359375 -0.75 -1.0 -1.265625q-0.640625 -0.484375 -1.515625 -0.734375q-0.875 -0.25 -1.890625 -0.25q-1.109375 0 -2.0 0.3125q-0.875 0.296875 -1.484375 0.796875q-0.609375 0.515625 -0.9375 1.15625q-0.328125 0.625 -0.34375 1.265625l2.0625 0q0 -0.375 0.171875 -0.71875q0.1875 -0.34375 0.515625 -0.609375q0.34375 -0.25 0.8125 -0.40625q0.484375 -0.15625 1.09375 -0.15625q0.65625 0 1.171875 0.171875q0.53125 0.171875 0.890625 0.46875q0.375 0.296875 0.5625 0.734375q0.203125 0.4375 0.203125 0.96875l0 0.953125l-2.234375 0q-1.25 0 -2.265625 0.25q-1.0 0.234375 -1.71875 0.71875q-0.71875 0.5 -1.125 1.25q-0.390625 0.734375 -0.390625 1.71875q0 0.75 0.296875 1.40625q0.296875 0.640625 0.84375 1.09375q0.53125 0.484375 1.296875 0.765625q0.765625 0.265625 1.71875 0.265625q0.578125 0 1.09375 -0.125q0.53125 -0.109375 1.0 -0.328125q0.453125 -0.203125 0.828125 -0.484375q0.390625 -0.28125 0.6875 -0.59375q0.046875 0.390625 0.109375 0.734375q0.078125 0.34375 0.203125 0.578125zm-3.625 -1.5625q-0.59375 0 -1.046875 -0.15625q-0.453125 -0.15625 -0.75 -0.421875q-0.296875 -0.265625 -0.453125 -0.640625q-0.15625 -0.375 -0.15625 -0.828125q0 -0.46875 0.171875 -0.828125q0.171875 -0.359375 0.515625 -0.625q0.453125 -0.375 1.25 -0.5625q0.796875 -0.1875 1.859375 -0.1875l1.890625 0l0 2.421875q-0.171875 0.359375 -0.484375 0.6875q-0.3125 0.328125 -0.734375 0.578125q-0.421875 0.25 -0.953125 0.40625q-0.515625 0.15625 -1.109375 0.15625zm9.330322 6.171875l2.046875 0l0 -5.765625q0.234375 0.25 0.484375 0.453125q0.25 0.203125 0.546875 0.375q0.46875 0.265625 1.0625 0.40625q0.59375 0.140625 1.28125 0.140625q1.125 0 2.0 -0.453125q0.875 -0.46875 1.484375 -1.296875q0.59375 -0.8125 0.90625 -1.921875q0.3125 -1.109375 0.3125 -2.40625l0 -0.21875q0 -1.34375 -0.3125 -2.46875q-0.3125 -1.125 -0.90625 -1.921875q-0.609375 -0.8125 -1.5 -1.265625q-0.875 -0.453125 -2.015625 -0.453125q-0.65625 0 -1.234375 0.140625q-0.5625 0.125 -1.03125 0.390625q-0.328125 0.1875 -0.625 0.4375q-0.28125 0.25 -0.515625 0.546875l-0.109375 -1.296875l-1.875 0l0 16.578125zm8.078125 -10.6875l0 0.21875q0 0.875 -0.203125 1.671875q-0.1875 0.796875 -0.59375 1.40625q-0.390625 0.609375 -1.015625 0.96875q-0.609375 0.359375 -1.46875 0.359375q-0.53125 0 -0.96875 -0.125q-0.4375 -0.140625 -0.796875 -0.375q-0.296875 -0.1875 -0.546875 -0.46875q-0.234375 -0.296875 -0.4375 -0.625l0 -5.765625q0.21875 -0.375 0.484375 -0.6875q0.28125 -0.3125 0.640625 -0.515625q0.328125 -0.21875 0.71875 -0.328125q0.40625 -0.109375 0.890625 -0.109375q0.859375 0 1.46875 0.359375q0.625 0.34375 1.03125 0.9375q0.40625 0.609375 0.59375 1.40625q0.203125 0.796875 0.203125 1.671875z" fill-rule="nonzero"/><path fill="#000000" fill-opacity="0.0" d="m237.80905 297.98032c20.144165 0 30.217438 -30.102356 40.2883 -60.204727c10.070862 -30.102356 20.139313 -60.204727 40.278625 -60.204727" fill-rule="evenodd"/><path stroke="#000000" stroke-width="1.0" stroke-linejoin="round" stroke-linecap="butt" d="m237.80905 297.98032c20.144165 0 30.217438 -30.102356 40.2883 -60.204727c5.035431 -15.051178 10.070251 -30.102356 16.363647 -41.390747c3.146698 -5.6441956 6.608032 -10.347687 10.541412 -13.640137c1.9666748 -1.646225 4.051361 -2.9396667 6.2737427 -3.821579c1.1111755 -0.44096375 2.256775 -0.7790222 3.43927 -1.0068512l0.2467041 -0.04447937" fill-rule="evenodd"/><path fill="#000000" stroke="#000000" stroke-width="1.0" stroke-linecap="butt" d="m314.96213 177.8718l-1.0214844 1.2189941l2.9790955 -1.3915558l-3.1766052 -0.8489227z" fill-rule="evenodd"/><path fill="#000000" fill-opacity="0.0" d="m237.80905 297.98032c42.155792 0 63.23285 -12.070862 84.311584 -24.141724c21.078735 -12.070862 42.15918 -24.141739 84.31833 -24.141739" fill-rule="evenodd"/><path stroke="#000000" stroke-width="1.0" stroke-linejoin="round" stroke-linecap="butt" d="m237.80905 297.98032c42.155792 0 63.23285 -12.070862 84.311615 -24.141724c10.539368 -6.035431 21.079132 -12.070862 34.253998 -16.597443c6.5874023 -2.2632904 13.833588 -4.1493683 22.067871 -5.4696198c4.1171265 -0.66012573 8.481323 -1.1788025 13.133667 -1.5324402c2.3261414 -0.17681885 4.7243958 -0.31237793 7.1997986 -0.4037323c1.2377014 -0.045684814 2.4947205 -0.08030701 3.7716675 -0.103500366l0.46435547 -0.007385254" fill-rule="evenodd"/><path fill="#000000" stroke="#000000" stroke-width="1.0" stroke-linecap="butt" d="m403.012 249.72447l-1.1154785 1.1336212l3.080597 -1.1494598l-3.0987244 -1.0996399z" fill-rule="evenodd"/><path fill="#000000" fill-opacity="0.0" d="m237.80905 297.98032c42.155792 0 63.23285 5.952759 84.311584 11.905518c21.078735 5.952759 42.15918 11.905518 84.31833 11.905518" fill-rule="evenodd"/><path stroke="#000000" stroke-width="1.0" stroke-linejoin="round" stroke-linecap="butt" d="m237.80905 297.98032c42.155792 0 63.23285 5.952759 84.311615 11.905518c10.539368 2.9763794 21.079132 5.952759 34.253998 8.185028c6.5874023 1.1161499 13.833588 2.0462646 22.067871 2.6973572c4.1171265 0.325531 8.481323 0.5812988 13.133667 0.7557068c2.3261414 0.08721924 4.7243958 0.15405273 7.1997986 0.19909668c1.2377014 0.022521973 2.4947205 0.039611816 3.7716675 0.05105591l0.46426392 0.003112793" fill-rule="evenodd"/><path fill="#000000" stroke="#000000" stroke-width="1.0" stroke-linecap="butt" d="m403.01193 321.7772l-1.129242 1.1199341l3.0943909 -1.1118164l-3.085083 -1.1373291z" fill-rule="evenodd"/><path fill="#000000" fill-opacity="0.0" d="m237.80905 297.98032c26.025696 0 39.03961 23.97638 52.051422 47.95276c13.01181 23.97638 26.021515 47.95276 52.04306 47.95276" fill-rule="evenodd"/><path stroke="#000000" stroke-width="1.0" stroke-linejoin="round" stroke-linecap="butt" d="m237.80905 297.98032c26.025726 0 39.03961 23.97638 52.051422 47.95276c6.50589 11.98819 13.0112915 23.97638 21.142883 32.96753c4.065796 4.4955444 8.5381775 8.241852 13.620422 10.864288c2.5411072 1.3112183 5.2347107 2.3414612 8.106201 3.0438843c1.43573 0.3511963 2.9159546 0.6204834 4.443817 0.8019104c0.38198853 0.045410156 0.76690674 0.08526611 1.1549072 0.11953735l0.15075684 0.012237549" fill-rule="evenodd"/><path fill="#000000" stroke="#000000" stroke-width="1.0" stroke-linecap="butt" d="m338.47946 393.74243l-1.1706543 1.0765686l3.1341248 -0.99432373l-3.0400085 -1.2528992z" fill-rule="evenodd"/><path fill="#fce5cd" d="m318.38522 151.09186l135.08661 0l0 52.97638l-135.08661 0z" fill-rule="evenodd"/><path stroke="#000000" stroke-width="1.0" stroke-linejoin="round" stroke-linecap="butt" d="m318.38522 151.09186l135.08661 0l0 52.97638l-135.08661 0z" fill-rule="evenodd"/><path fill="#000000" d="m333.43503 183.06255l0 -11.828125l-1.6875 0l0 13.265625l8.171875 0l0 -1.4375l-6.484375 0zm15.773712 1.4375l1.75 0l0 -0.140625q-0.15625 -0.421875 -0.25 -0.96875q-0.09375 -0.546875 -0.09375 -1.046875l0 -4.578125q0 -0.828125 -0.296875 -1.4375q-0.296875 -0.625 -0.8125 -1.046875q-0.53125 -0.40625 -1.25 -0.609375q-0.71875 -0.203125 -1.5625 -0.203125q-0.921875 0 -1.65625 0.25q-0.71875 0.25 -1.21875 0.65625q-0.5 0.421875 -0.78125 0.953125q-0.265625 0.515625 -0.265625 1.046875l1.6875 0q0 -0.3125 0.140625 -0.59375q0.15625 -0.28125 0.4375 -0.5q0.265625 -0.203125 0.65625 -0.328125q0.40625 -0.140625 0.90625 -0.140625q0.546875 0 0.96875 0.140625q0.4375 0.140625 0.734375 0.390625q0.296875 0.25 0.453125 0.609375q0.171875 0.34375 0.171875 0.796875l0 0.78125l-1.828125 0q-1.03125 0 -1.875 0.203125q-0.828125 0.1875 -1.421875 0.59375q-0.59375 0.40625 -0.921875 1.015625q-0.3125 0.609375 -0.3125 1.421875q0 0.625 0.234375 1.15625q0.25 0.53125 0.6875 0.90625q0.4375 0.40625 1.0625 0.640625q0.640625 0.21875 1.4375 0.21875q0.46875 0 0.890625 -0.109375q0.4375 -0.09375 0.828125 -0.265625q0.375 -0.171875 0.6875 -0.390625q0.3125 -0.234375 0.5625 -0.5q0.03125 0.3125 0.09375 0.609375q0.0625 0.28125 0.15625 0.46875zm-2.984375 -1.28125q-0.484375 0 -0.859375 -0.125q-0.375 -0.140625 -0.625 -0.359375q-0.234375 -0.21875 -0.359375 -0.53125q-0.125 -0.3125 -0.125 -0.671875q0 -0.390625 0.140625 -0.6875q0.140625 -0.296875 0.40625 -0.515625q0.390625 -0.3125 1.03125 -0.453125q0.65625 -0.15625 1.53125 -0.15625l1.5625 0l0 2.0q-0.140625 0.28125 -0.40625 0.5625q-0.25 0.265625 -0.59375 0.46875q-0.34375 0.203125 -0.78125 0.34375q-0.421875 0.125 -0.921875 0.125zm8.476807 -8.578125l-1.515625 0l0 9.859375l1.609375 0l0 -7.84375q0.046875 -0.140625 0.125 -0.265625q0.09375 -0.140625 0.21875 -0.234375q0.15625 -0.125 0.375 -0.1875q0.21875 -0.078125 0.53125 -0.078125q0.265625 0 0.46875 0.078125q0.203125 0.0625 0.34375 0.203125q0.15625 0.15625 0.21875 0.390625q0.0625 0.234375 0.0625 0.546875l0 7.390625l1.609375 0l0 -7.375q0 -0.0625 0 -0.09375q0 -0.046875 0 -0.09375q0.03125 -0.21875 0.109375 -0.40625q0.078125 -0.1875 0.21875 -0.34375q0.15625 -0.125 0.375 -0.203125q0.21875 -0.09375 0.515625 -0.09375q0.28125 0 0.484375 0.078125q0.21875 0.0625 0.375 0.21875q0.140625 0.15625 0.203125 0.390625q0.078125 0.234375 0.078125 0.546875l0 7.375l1.59375 0l0 -7.359375q0 -0.71875 -0.171875 -1.234375q-0.15625 -0.53125 -0.453125 -0.859375q-0.28125 -0.28125 -0.703125 -0.421875q-0.40625 -0.15625 -0.921875 -0.15625q-0.359375 0 -0.6875 0.09375q-0.3125 0.09375 -0.5625 0.25q-0.203125 0.125 -0.375 0.3125q-0.171875 0.1875 -0.296875 0.390625q-0.109375 -0.21875 -0.25 -0.40625q-0.140625 -0.1875 -0.3125 -0.3125q-0.234375 -0.15625 -0.546875 -0.234375q-0.3125 -0.09375 -0.703125 -0.09375q-0.6875 0 -1.1875 0.296875q-0.484375 0.28125 -0.78125 0.8125l-0.046875 -0.9375zm18.773712 5.046875l0 -0.203125q0 -0.765625 -0.125 -1.453125q-0.125 -0.703125 -0.375 -1.28125q-0.234375 -0.515625 -0.546875 -0.921875q-0.3125 -0.421875 -0.703125 -0.703125q-0.4375 -0.3125 -0.984375 -0.484375q-0.53125 -0.171875 -1.15625 -0.171875q-0.515625 0 -0.953125 0.09375q-0.4375 0.09375 -0.796875 0.296875q-0.296875 0.15625 -0.5625 0.375q-0.25 0.203125 -0.453125 0.46875l0 -5.203125l-1.6875 0l0 14.0l1.546875 0l0.078125 -1.125q0.171875 0.21875 0.34375 0.390625q0.1875 0.171875 0.390625 0.3125q0.421875 0.296875 0.9375 0.453125q0.53125 0.15625 1.171875 0.15625q0.546875 0 1.015625 -0.140625q0.484375 -0.140625 0.890625 -0.390625q0.5625 -0.34375 0.953125 -0.890625q0.390625 -0.546875 0.640625 -1.21875q0.1875 -0.53125 0.28125 -1.125q0.09375 -0.59375 0.09375 -1.234375zm-1.6875 -0.203125l0 0.203125q0 0.4375 -0.0625 0.859375q-0.046875 0.40625 -0.15625 0.78125q-0.15625 0.46875 -0.40625 0.875q-0.234375 0.390625 -0.609375 0.640625q-0.265625 0.203125 -0.609375 0.3125q-0.34375 0.09375 -0.765625 0.09375q-0.4375 0 -0.8125 -0.109375q-0.359375 -0.109375 -0.640625 -0.328125q-0.296875 -0.203125 -0.53125 -0.484375q-0.21875 -0.28125 -0.375 -0.609375l0 -4.3125q0.15625 -0.328125 0.375 -0.59375q0.21875 -0.28125 0.515625 -0.5q0.28125 -0.1875 0.640625 -0.296875q0.375 -0.125 0.8125 -0.125q0.390625 0 0.71875 0.09375q0.328125 0.09375 0.59375 0.25q0.390625 0.234375 0.65625 0.640625q0.265625 0.390625 0.421875 0.875q0.125 0.390625 0.171875 0.84375q0.0625 0.4375 0.0625 0.890625zm4.2111816 0l0 0.203125q0 1.046875 0.28125 1.96875q0.28125 0.90625 0.796875 1.59375q0.5 0.671875 1.21875 1.0625q0.734375 0.375 1.625 0.375q0.921875 0 1.59375 -0.3125q0.6875 -0.3125 1.1875 -0.90625l0.0625 1.03125l1.546875 0l0 -14.0l-1.6875 0l0 5.125q-0.46875 -0.578125 -1.140625 -0.859375q-0.65625 -0.296875 -1.546875 -0.296875q-0.890625 0 -1.625 0.375q-0.734375 0.359375 -1.234375 1.03125q-0.515625 0.65625 -0.796875 1.59375q-0.28125 0.921875 -0.28125 2.015625zm1.6875 0.203125l0 -0.203125q0 -0.71875 0.15625 -1.359375q0.15625 -0.65625 0.484375 -1.15625q0.3125 -0.5 0.8125 -0.78125q0.515625 -0.296875 1.21875 -0.296875q0.828125 0 1.375 0.390625q0.5625 0.390625 0.890625 0.984375l0 4.578125q-0.328125 0.640625 -0.890625 1.03125q-0.546875 0.375 -1.390625 0.375q-0.703125 0 -1.203125 -0.28125q-0.5 -0.296875 -0.8125 -0.78125q-0.328125 -0.5 -0.484375 -1.140625q-0.15625 -0.640625 -0.15625 -1.359375zm16.304962 4.8125l1.75 0l0 -0.140625q-0.15625 -0.421875 -0.25 -0.96875q-0.09375 -0.546875 -0.09375 -1.046875l0 -4.578125q0 -0.828125 -0.296875 -1.4375q-0.296875 -0.625 -0.8125 -1.046875q-0.53125 -0.40625 -1.25 -0.609375q-0.71875 -0.203125 -1.5625 -0.203125q-0.921875 0 -1.65625 0.25q-0.71875 0.25 -1.21875 0.65625q-0.5 0.421875 -0.78125 0.953125q-0.265625 0.515625 -0.265625 1.046875l1.6875 0q0 -0.3125 0.140625 -0.59375q0.15625 -0.28125 0.4375 -0.5q0.265625 -0.203125 0.65625 -0.328125q0.40625 -0.140625 0.90625 -0.140625q0.546875 0 0.96875 0.140625q0.4375 0.140625 0.734375 0.390625q0.296875 0.25 0.453125 0.609375q0.171875 0.34375 0.171875 0.796875l0 0.78125l-1.828125 0q-1.03125 0 -1.875 0.203125q-0.828125 0.1875 -1.421875 0.59375q-0.59375 0.40625 -0.921875 1.015625q-0.3125 0.609375 -0.3125 1.421875q0 0.625 0.234375 1.15625q0.25 0.53125 0.6875 0.90625q0.4375 0.40625 1.0625 0.640625q0.640625 0.21875 1.4375 0.21875q0.46875 0 0.890625 -0.109375q0.4375 -0.09375 0.828125 -0.265625q0.375 -0.171875 0.6875 -0.390625q0.3125 -0.234375 0.5625 -0.5q0.03125 0.3125 0.09375 0.609375q0.0625 0.28125 0.15625 0.46875zm-2.984375 -1.28125q-0.484375 0 -0.859375 -0.125q-0.375 -0.140625 -0.625 -0.359375q-0.234375 -0.21875 -0.359375 -0.53125q-0.125 -0.3125 -0.125 -0.671875q0 -0.390625 0.140625 -0.6875q0.140625 -0.296875 0.40625 -0.515625q0.390625 -0.3125 1.03125 -0.453125q0.65625 -0.15625 1.53125 -0.15625l1.5625 0l0 2.0q-0.140625 0.28125 -0.40625 0.5625q-0.25 0.265625 -0.59375 0.46875q-0.34375 0.203125 -0.78125 0.34375q-0.421875 0.125 -0.921875 0.125zm13.164307 1.28125l0 -13.265625l-0.125 0l-5.03125 1.9375l0 1.53125l3.46875 -1.3125l0 11.109375l1.6875 0zm21.781769 -3.734375l-0.71875 3.734375l1.296875 0l0.734375 -3.734375l2.28125 0l0 -1.25l-2.046875 0l0.625 -3.21875l2.109375 0l0 -1.265625l-1.859375 0l0.734375 -3.796875l-1.296875 0l-0.75 3.796875l-2.40625 0l0.75 -3.796875l-1.296875 0l-0.75 3.796875l-2.59375 0l0 1.265625l2.34375 0l-0.625 3.21875l-2.40625 0l0 1.25l2.171875 0l-0.734375 3.734375l1.3125 0l0.71875 -3.734375l2.40625 0zm-2.171875 -1.25l0.640625 -3.21875l2.40625 0l-0.640625 3.21875l-2.40625 0zm13.976837 4.984375l0 -13.265625l-0.125 0l-5.03125 1.9375l0 1.53125l3.46875 -1.3125l0 11.109375l1.6875 0z" fill-rule="nonzero"/><path fill="#fce5cd" d="m406.43246 223.19423l135.08664 0l0 52.976364l-135.08664 0z" fill-rule="evenodd"/><path stroke="#000000" stroke-width="1.0" stroke-linejoin="round" stroke-linecap="butt" d="m406.43246 223.19423l135.08664 0l0 52.976364l-135.08664 0z" fill-rule="evenodd"/><path fill="#000000" d="m421.4823 255.16492l0 -11.828125l-1.6875 0l0 13.265625l8.171875 0l0 -1.4375l-6.484375 0zm15.773712 1.4375l1.75 0l0 -0.140625q-0.15625 -0.421875 -0.25 -0.96875q-0.09375 -0.546875 -0.09375 -1.046875l0 -4.578125q0 -0.828125 -0.296875 -1.4375q-0.296875 -0.625 -0.8125 -1.046875q-0.53125 -0.40625 -1.25 -0.609375q-0.71875 -0.203125 -1.5625 -0.203125q-0.921875 0 -1.65625 0.25q-0.71875 0.25 -1.21875 0.65625q-0.5 0.421875 -0.78125 0.953125q-0.265625 0.515625 -0.265625 1.046875l1.6875 0q0 -0.3125 0.140625 -0.59375q0.15625 -0.28125 0.4375 -0.5q0.265625 -0.203125 0.65625 -0.328125q0.40625 -0.140625 0.90625 -0.140625q0.546875 0 0.96875 0.140625q0.4375 0.140625 0.734375 0.390625q0.296875 0.25 0.453125 0.609375q0.171875 0.34375 0.171875 0.796875l0 0.78125l-1.828125 0q-1.03125 0 -1.875 0.203125q-0.828125 0.1875 -1.421875 0.59375q-0.59375 0.40625 -0.921875 1.015625q-0.3125 0.609375 -0.3125 1.421875q0 0.625 0.234375 1.15625q0.25 0.53125 0.6875 0.90625q0.4375 0.40625 1.0625 0.640625q0.640625 0.21875 1.4375 0.21875q0.46875 0 0.890625 -0.109375q0.4375 -0.09375 0.828125 -0.265625q0.375 -0.171875 0.6875 -0.390625q0.3125 -0.234375 0.5625 -0.5q0.03125 0.3125 0.09375 0.609375q0.0625 0.28125 0.15625 0.46875zm-2.984375 -1.28125q-0.484375 0 -0.859375 -0.125q-0.375 -0.140625 -0.625 -0.359375q-0.234375 -0.21875 -0.359375 -0.53125q-0.125 -0.3125 -0.125 -0.671875q0 -0.390625 0.140625 -0.6875q0.140625 -0.296875 0.40625 -0.515625q0.390625 -0.3125 1.03125 -0.453125q0.65625 -0.15625 1.53125 -0.15625l1.5625 0l0 2.0q-0.140625 0.28125 -0.40625 0.5625q-0.25 0.265625 -0.59375 0.46875q-0.34375 0.203125 -0.78125 0.34375q-0.421875 0.125 -0.921875 0.125zm8.476807 -8.578125l-1.515625 0l0 9.859375l1.609375 0l0 -7.84375q0.046875 -0.140625 0.125 -0.265625q0.09375 -0.140625 0.21875 -0.234375q0.15625 -0.125 0.375 -0.1875q0.21875 -0.078125 0.53125 -0.078125q0.265625 0 0.46875 0.078125q0.203125 0.0625 0.34375 0.203125q0.15625 0.15625 0.21875 0.390625q0.0625 0.234375 0.0625 0.546875l0 7.390625l1.609375 0l0 -7.375q0 -0.0625 0 -0.09375q0 -0.046875 0 -0.09375q0.03125 -0.21875 0.109375 -0.40625q0.078125 -0.1875 0.21875 -0.34375q0.15625 -0.125 0.375 -0.203125q0.21875 -0.09375 0.515625 -0.09375q0.28125 0 0.484375 0.078125q0.21875 0.0625 0.375 0.21875q0.140625 0.15625 0.203125 0.390625q0.078125 0.234375 0.078125 0.546875l0 7.375l1.59375 0l0 -7.359375q0 -0.71875 -0.171875 -1.234375q-0.15625 -0.53125 -0.453125 -0.859375q-0.28125 -0.28125 -0.703125 -0.421875q-0.40625 -0.15625 -0.921875 -0.15625q-0.359375 0 -0.6875 0.09375q-0.3125 0.09375 -0.5625 0.25q-0.203125 0.125 -0.375 0.3125q-0.171875 0.1875 -0.296875 0.390625q-0.109375 -0.21875 -0.25 -0.40625q-0.140625 -0.1875 -0.3125 -0.3125q-0.234375 -0.15625 -0.546875 -0.234375q-0.3125 -0.09375 -0.703125 -0.09375q-0.6875 0 -1.1875 0.296875q-0.484375 0.28125 -0.78125 0.8125l-0.046875 -0.9375zm18.773712 5.046875l0 -0.203125q0 -0.765625 -0.125 -1.453125q-0.125 -0.703125 -0.375 -1.28125q-0.234375 -0.515625 -0.546875 -0.921875q-0.3125 -0.421875 -0.703125 -0.703125q-0.4375 -0.3125 -0.984375 -0.484375q-0.53125 -0.171875 -1.15625 -0.171875q-0.515625 0 -0.953125 0.09375q-0.4375 0.09375 -0.796875 0.296875q-0.296875 0.15625 -0.5625 0.375q-0.25 0.203125 -0.453125 0.46875l0 -5.203125l-1.6875 0l0 14.0l1.546875 0l0.078125 -1.125q0.171875 0.21875 0.34375 0.390625q0.1875 0.171875 0.390625 0.3125q0.421875 0.296875 0.9375 0.453125q0.53125 0.15625 1.171875 0.15625q0.546875 0 1.015625 -0.140625q0.484375 -0.140625 0.890625 -0.390625q0.5625 -0.34375 0.953125 -0.890625q0.390625 -0.546875 0.640625 -1.21875q0.1875 -0.53125 0.28125 -1.125q0.09375 -0.59375 0.09375 -1.234375zm-1.6875 -0.203125l0 0.203125q0 0.4375 -0.0625 0.859375q-0.046875 0.40625 -0.15625 0.78125q-0.15625 0.46875 -0.40625 0.875q-0.234375 0.390625 -0.609375 0.640625q-0.265625 0.203125 -0.609375 0.3125q-0.34375 0.09375 -0.765625 0.09375q-0.4375 0 -0.8125 -0.109375q-0.359375 -0.109375 -0.640625 -0.328125q-0.296875 -0.203125 -0.53125 -0.484375q-0.21875 -0.28125 -0.375 -0.609375l0 -4.3125q0.15625 -0.328125 0.375 -0.59375q0.21875 -0.28125 0.515625 -0.5q0.28125 -0.1875 0.640625 -0.296875q0.375 -0.125 0.8125 -0.125q0.390625 0 0.71875 0.09375q0.328125 0.09375 0.59375 0.25q0.390625 0.234375 0.65625 0.640625q0.265625 0.390625 0.421875 0.875q0.125 0.390625 0.171875 0.84375q0.0625 0.4375 0.0625 0.890625zm4.2111816 0l0 0.203125q0 1.046875 0.28125 1.96875q0.28125 0.90625 0.796875 1.59375q0.5 0.671875 1.21875 1.0625q0.734375 0.375 1.625 0.375q0.921875 0 1.59375 -0.3125q0.6875 -0.3125 1.1875 -0.90625l0.0625 1.03125l1.546875 0l0 -14.0l-1.6875 0l0 5.125q-0.46875 -0.578125 -1.140625 -0.859375q-0.65625 -0.296875 -1.546875 -0.296875q-0.890625 0 -1.625 0.375q-0.734375 0.359375 -1.234375 1.03125q-0.515625 0.65625 -0.796875 1.59375q-0.28125 0.921875 -0.28125 2.015625zm1.6875 0.203125l0 -0.203125q0 -0.71875 0.15625 -1.359375q0.15625 -0.65625 0.484375 -1.15625q0.3125 -0.5 0.8125 -0.78125q0.515625 -0.296875 1.21875 -0.296875q0.828125 0 1.375 0.390625q0.5625 0.390625 0.890625 0.984375l0 4.578125q-0.328125 0.640625 -0.890625 1.03125q-0.546875 0.375 -1.390625 0.375q-0.703125 0 -1.203125 -0.28125q-0.5 -0.296875 -0.8125 -0.78125q-0.328125 -0.5 -0.484375 -1.140625q-0.15625 -0.640625 -0.15625 -1.359375zm16.304932 4.8125l1.75 0l0 -0.140625q-0.15625 -0.421875 -0.25 -0.96875q-0.09375 -0.546875 -0.09375 -1.046875l0 -4.578125q0 -0.828125 -0.296875 -1.4375q-0.296875 -0.625 -0.8125 -1.046875q-0.53125 -0.40625 -1.25 -0.609375q-0.71875 -0.203125 -1.5625 -0.203125q-0.921875 0 -1.65625 0.25q-0.71875 0.25 -1.21875 0.65625q-0.5 0.421875 -0.78125 0.953125q-0.265625 0.515625 -0.265625 1.046875l1.6875 0q0 -0.3125 0.140625 -0.59375q0.15625 -0.28125 0.4375 -0.5q0.265625 -0.203125 0.65625 -0.328125q0.40625 -0.140625 0.90625 -0.140625q0.546875 0 0.96875 0.140625q0.4375 0.140625 0.734375 0.390625q0.296875 0.25 0.453125 0.609375q0.171875 0.34375 0.171875 0.796875l0 0.78125l-1.828125 0q-1.03125 0 -1.875 0.203125q-0.828125 0.1875 -1.421875 0.59375q-0.59375 0.40625 -0.921875 1.015625q-0.3125 0.609375 -0.3125 1.421875q0 0.625 0.234375 1.15625q0.25 0.53125 0.6875 0.90625q0.4375 0.40625 1.0625 0.640625q0.640625 0.21875 1.4375 0.21875q0.46875 0 0.890625 -0.109375q0.4375 -0.09375 0.828125 -0.265625q0.375 -0.171875 0.6875 -0.390625q0.3125 -0.234375 0.5625 -0.5q0.03125 0.3125 0.09375 0.609375q0.0625 0.28125 0.15625 0.46875zm-2.984375 -1.28125q-0.484375 0 -0.859375 -0.125q-0.375 -0.140625 -0.625 -0.359375q-0.234375 -0.21875 -0.359375 -0.53125q-0.125 -0.3125 -0.125 -0.671875q0 -0.390625 0.140625 -0.6875q0.140625 -0.296875 0.40625 -0.515625q0.390625 -0.3125 1.03125 -0.453125q0.65625 -0.15625 1.53125 -0.15625l1.5625 0l0 2.0q-0.140625 0.28125 -0.40625 0.5625q-0.25 0.265625 -0.59375 0.46875q-0.34375 0.203125 -0.78125 0.34375q-0.421875 0.125 -0.921875 0.125zm13.164337 1.28125l0 -13.265625l-0.125 0l-5.03125 1.9375l0 1.53125l3.46875 -1.3125l0 11.109375l1.6875 0zm21.781769 -3.734375l-0.71875 3.734375l1.296875 0l0.734375 -3.734375l2.28125 0l0 -1.25l-2.046875 0l0.625 -3.21875l2.109375 0l0 -1.265625l-1.859375 0l0.734375 -3.796875l-1.296875 0l-0.75 3.796875l-2.40625 0l0.75 -3.796875l-1.296875 0l-0.75 3.796875l-2.59375 0l0 1.265625l2.34375 0l-0.625 3.21875l-2.40625 0l0 1.25l2.171875 0l-0.734375 3.734375l1.3125 0l0.71875 -3.734375l2.40625 0zm-2.171875 -1.25l0.640625 -3.21875l2.40625 0l-0.640625 3.21875l-2.40625 0zm16.648682 4.984375l0 -1.375l-6.65625 0l3.5625 -3.859375q0.5 -0.546875 0.953125 -1.09375q0.453125 -0.5625 0.796875 -1.125q0.328125 -0.5625 0.53125 -1.140625q0.203125 -0.578125 0.203125 -1.171875q0 -0.796875 -0.28125 -1.46875q-0.28125 -0.671875 -0.796875 -1.15625q-0.515625 -0.5 -1.265625 -0.78125q-0.75 -0.28125 -1.6875 -0.28125q-1.03125 0 -1.828125 0.328125q-0.796875 0.328125 -1.34375 0.890625q-0.546875 0.5625 -0.84375 1.3125q-0.28125 0.734375 -0.28125 1.5625l1.6875 0q0 -0.609375 0.15625 -1.109375q0.15625 -0.515625 0.484375 -0.859375q0.328125 -0.34375 0.8125 -0.53125q0.484375 -0.203125 1.15625 -0.203125q0.546875 0 0.96875 0.1875q0.4375 0.1875 0.75 0.5q0.296875 0.328125 0.453125 0.765625q0.171875 0.421875 0.171875 0.921875q0 0.390625 -0.109375 0.78125q-0.09375 0.375 -0.328125 0.796875q-0.25 0.421875 -0.640625 0.921875q-0.390625 0.5 -0.96875 1.140625l-4.34375 4.828125l0 1.21875l8.6875 0z" fill-rule="nonzero"/><path fill="#fce5cd" d="m406.43246 295.2966l135.08664 0l0 52.97638l-135.08664 0z" fill-rule="evenodd"/><path stroke="#000000" stroke-width="1.0" stroke-linejoin="round" stroke-linecap="butt" d="m406.43246 295.2966l135.08664 0l0 52.97638l-135.08664 0z" fill-rule="evenodd"/><path fill="#000000" d="m421.4823 327.26727l0 -11.828125l-1.6875 0l0 13.265625l8.171875 0l0 -1.4375l-6.484375 0zm15.773712 1.4375l1.75 0l0 -0.140625q-0.15625 -0.421875 -0.25 -0.96875q-0.09375 -0.546875 -0.09375 -1.046875l0 -4.578125q0 -0.828125 -0.296875 -1.4375q-0.296875 -0.625 -0.8125 -1.046875q-0.53125 -0.40625 -1.25 -0.609375q-0.71875 -0.203125 -1.5625 -0.203125q-0.921875 0 -1.65625 0.25q-0.71875 0.25 -1.21875 0.65625q-0.5 0.421875 -0.78125 0.953125q-0.265625 0.515625 -0.265625 1.046875l1.6875 0q0 -0.3125 0.140625 -0.59375q0.15625 -0.28125 0.4375 -0.5q0.265625 -0.203125 0.65625 -0.328125q0.40625 -0.140625 0.90625 -0.140625q0.546875 0 0.96875 0.140625q0.4375 0.140625 0.734375 0.390625q0.296875 0.25 0.453125 0.609375q0.171875 0.34375 0.171875 0.796875l0 0.78125l-1.828125 0q-1.03125 0 -1.875 0.203125q-0.828125 0.1875 -1.421875 0.59375q-0.59375 0.40625 -0.921875 1.015625q-0.3125 0.609375 -0.3125 1.421875q0 0.625 0.234375 1.15625q0.25 0.53125 0.6875 0.90625q0.4375 0.40625 1.0625 0.640625q0.640625 0.21875 1.4375 0.21875q0.46875 0 0.890625 -0.109375q0.4375 -0.09375 0.828125 -0.265625q0.375 -0.171875 0.6875 -0.390625q0.3125 -0.234375 0.5625 -0.5q0.03125 0.3125 0.09375 0.609375q0.0625 0.28125 0.15625 0.46875zm-2.984375 -1.28125q-0.484375 0 -0.859375 -0.125q-0.375 -0.140625 -0.625 -0.359375q-0.234375 -0.21875 -0.359375 -0.53125q-0.125 -0.3125 -0.125 -0.671875q0 -0.390625 0.140625 -0.6875q0.140625 -0.296875 0.40625 -0.515625q0.390625 -0.3125 1.03125 -0.453125q0.65625 -0.15625 1.53125 -0.15625l1.5625 0l0 2.0q-0.140625 0.28125 -0.40625 0.5625q-0.25 0.265625 -0.59375 0.46875q-0.34375 0.203125 -0.78125 0.34375q-0.421875 0.125 -0.921875 0.125zm8.476807 -8.578125l-1.515625 0l0 9.859375l1.609375 0l0 -7.84375q0.046875 -0.140625 0.125 -0.265625q0.09375 -0.140625 0.21875 -0.234375q0.15625 -0.125 0.375 -0.1875q0.21875 -0.078125 0.53125 -0.078125q0.265625 0 0.46875 0.078125q0.203125 0.0625 0.34375 0.203125q0.15625 0.15625 0.21875 0.390625q0.0625 0.234375 0.0625 0.546875l0 7.390625l1.609375 0l0 -7.375q0 -0.0625 0 -0.09375q0 -0.046875 0 -0.09375q0.03125 -0.21875 0.109375 -0.40625q0.078125 -0.1875 0.21875 -0.34375q0.15625 -0.125 0.375 -0.203125q0.21875 -0.09375 0.515625 -0.09375q0.28125 0 0.484375 0.078125q0.21875 0.0625 0.375 0.21875q0.140625 0.15625 0.203125 0.390625q0.078125 0.234375 0.078125 0.546875l0 7.375l1.59375 0l0 -7.359375q0 -0.71875 -0.171875 -1.234375q-0.15625 -0.53125 -0.453125 -0.859375q-0.28125 -0.28125 -0.703125 -0.421875q-0.40625 -0.15625 -0.921875 -0.15625q-0.359375 0 -0.6875 0.09375q-0.3125 0.09375 -0.5625 0.25q-0.203125 0.125 -0.375 0.3125q-0.171875 0.1875 -0.296875 0.390625q-0.109375 -0.21875 -0.25 -0.40625q-0.140625 -0.1875 -0.3125 -0.3125q-0.234375 -0.15625 -0.546875 -0.234375q-0.3125 -0.09375 -0.703125 -0.09375q-0.6875 0 -1.1875 0.296875q-0.484375 0.28125 -0.78125 0.8125l-0.046875 -0.9375zm18.773712 5.046875l0 -0.203125q0 -0.765625 -0.125 -1.453125q-0.125 -0.703125 -0.375 -1.28125q-0.234375 -0.515625 -0.546875 -0.921875q-0.3125 -0.421875 -0.703125 -0.703125q-0.4375 -0.3125 -0.984375 -0.484375q-0.53125 -0.171875 -1.15625 -0.171875q-0.515625 0 -0.953125 0.09375q-0.4375 0.09375 -0.796875 0.296875q-0.296875 0.15625 -0.5625 0.375q-0.25 0.203125 -0.453125 0.46875l0 -5.203125l-1.6875 0l0 14.0l1.546875 0l0.078125 -1.125q0.171875 0.21875 0.34375 0.390625q0.1875 0.171875 0.390625 0.3125q0.421875 0.296875 0.9375 0.453125q0.53125 0.15625 1.171875 0.15625q0.546875 0 1.015625 -0.140625q0.484375 -0.140625 0.890625 -0.390625q0.5625 -0.34375 0.953125 -0.890625q0.390625 -0.546875 0.640625 -1.21875q0.1875 -0.53125 0.28125 -1.125q0.09375 -0.59375 0.09375 -1.234375zm-1.6875 -0.203125l0 0.203125q0 0.4375 -0.0625 0.859375q-0.046875 0.40625 -0.15625 0.78125q-0.15625 0.46875 -0.40625 0.875q-0.234375 0.390625 -0.609375 0.640625q-0.265625 0.203125 -0.609375 0.3125q-0.34375 0.09375 -0.765625 0.09375q-0.4375 0 -0.8125 -0.109375q-0.359375 -0.109375 -0.640625 -0.328125q-0.296875 -0.203125 -0.53125 -0.484375q-0.21875 -0.28125 -0.375 -0.609375l0 -4.3125q0.15625 -0.328125 0.375 -0.59375q0.21875 -0.28125 0.515625 -0.5q0.28125 -0.1875 0.640625 -0.296875q0.375 -0.125 0.8125 -0.125q0.390625 0 0.71875 0.09375q0.328125 0.09375 0.59375 0.25q0.390625 0.234375 0.65625 0.640625q0.265625 0.390625 0.421875 0.875q0.125 0.390625 0.171875 0.84375q0.0625 0.4375 0.0625 0.890625zm4.2111816 0l0 0.203125q0 1.046875 0.28125 1.96875q0.28125 0.90625 0.796875 1.59375q0.5 0.671875 1.21875 1.0625q0.734375 0.375 1.625 0.375q0.921875 0 1.59375 -0.3125q0.6875 -0.3125 1.1875 -0.90625l0.0625 1.03125l1.546875 0l0 -14.0l-1.6875 0l0 5.125q-0.46875 -0.578125 -1.140625 -0.859375q-0.65625 -0.296875 -1.546875 -0.296875q-0.890625 0 -1.625 0.375q-0.734375 0.359375 -1.234375 1.03125q-0.515625 0.65625 -0.796875 1.59375q-0.28125 0.921875 -0.28125 2.015625zm1.6875 0.203125l0 -0.203125q0 -0.71875 0.15625 -1.359375q0.15625 -0.65625 0.484375 -1.15625q0.3125 -0.5 0.8125 -0.78125q0.515625 -0.296875 1.21875 -0.296875q0.828125 0 1.375 0.390625q0.5625 0.390625 0.890625 0.984375l0 4.578125q-0.328125 0.640625 -0.890625 1.03125q-0.546875 0.375 -1.390625 0.375q-0.703125 0 -1.203125 -0.28125q-0.5 -0.296875 -0.8125 -0.78125q-0.328125 -0.5 -0.484375 -1.140625q-0.15625 -0.640625 -0.15625 -1.359375zm16.304932 4.8125l1.75 0l0 -0.140625q-0.15625 -0.421875 -0.25 -0.96875q-0.09375 -0.546875 -0.09375 -1.046875l0 -4.578125q0 -0.828125 -0.296875 -1.4375q-0.296875 -0.625 -0.8125 -1.046875q-0.53125 -0.40625 -1.25 -0.609375q-0.71875 -0.203125 -1.5625 -0.203125q-0.921875 0 -1.65625 0.25q-0.71875 0.25 -1.21875 0.65625q-0.5 0.421875 -0.78125 0.953125q-0.265625 0.515625 -0.265625 1.046875l1.6875 0q0 -0.3125 0.140625 -0.59375q0.15625 -0.28125 0.4375 -0.5q0.265625 -0.203125 0.65625 -0.328125q0.40625 -0.140625 0.90625 -0.140625q0.546875 0 0.96875 0.140625q0.4375 0.140625 0.734375 0.390625q0.296875 0.25 0.453125 0.609375q0.171875 0.34375 0.171875 0.796875l0 0.78125l-1.828125 0q-1.03125 0 -1.875 0.203125q-0.828125 0.1875 -1.421875 0.59375q-0.59375 0.40625 -0.921875 1.015625q-0.3125 0.609375 -0.3125 1.421875q0 0.625 0.234375 1.15625q0.25 0.53125 0.6875 0.90625q0.4375 0.40625 1.0625 0.640625q0.640625 0.21875 1.4375 0.21875q0.46875 0 0.890625 -0.109375q0.4375 -0.09375 0.828125 -0.265625q0.375 -0.171875 0.6875 -0.390625q0.3125 -0.234375 0.5625 -0.5q0.03125 0.3125 0.09375 0.609375q0.0625 0.28125 0.15625 0.46875zm-2.984375 -1.28125q-0.484375 0 -0.859375 -0.125q-0.375 -0.140625 -0.625 -0.359375q-0.234375 -0.21875 -0.359375 -0.53125q-0.125 -0.3125 -0.125 -0.671875q0 -0.390625 0.140625 -0.6875q0.140625 -0.296875 0.40625 -0.515625q0.390625 -0.3125 1.03125 -0.453125q0.65625 -0.15625 1.53125 -0.15625l1.5625 0l0 2.0q-0.140625 0.28125 -0.40625 0.5625q-0.25 0.265625 -0.59375 0.46875q-0.34375 0.203125 -0.78125 0.34375q-0.421875 0.125 -0.921875 0.125zm13.164337 1.28125l0 -13.265625l-0.125 0l-5.03125 1.9375l0 1.53125l3.46875 -1.3125l0 11.109375l1.6875 0zm21.781769 -3.734375l-0.71875 3.734375l1.296875 0l0.734375 -3.734375l2.28125 0l0 -1.25l-2.046875 0l0.625 -3.21875l2.109375 0l0 -1.265625l-1.859375 0l0.734375 -3.796875l-1.296875 0l-0.75 3.796875l-2.40625 0l0.75 -3.796875l-1.296875 0l-0.75 3.796875l-2.59375 0l0 1.265625l2.34375 0l-0.625 3.21875l-2.40625 0l0 1.25l2.171875 0l-0.734375 3.734375l1.3125 0l0.71875 -3.734375l2.40625 0zm-2.171875 -1.25l0.640625 -3.21875l2.40625 0l-0.640625 3.21875l-2.40625 0zm10.476807 -2.453125l0 1.359375l1.203125 0q0.640625 0 1.15625 0.15625q0.53125 0.140625 0.90625 0.4375q0.359375 0.296875 0.5625 0.75q0.203125 0.453125 0.203125 1.078125q0 0.625 -0.1875 1.09375q-0.171875 0.453125 -0.5 0.765625q-0.328125 0.296875 -0.796875 0.453125q-0.453125 0.15625 -1.03125 0.15625q-0.578125 0 -1.046875 -0.15625q-0.46875 -0.171875 -0.796875 -0.484375q-0.328125 -0.296875 -0.5 -0.71875q-0.171875 -0.4375 -0.171875 -0.953125l-1.6875 0q0 0.875 0.328125 1.5625q0.328125 0.6875 0.90625 1.15625q0.5625 0.46875 1.328125 0.71875q0.765625 0.25 1.640625 0.25q0.890625 0 1.65625 -0.265625q0.78125 -0.265625 1.34375 -0.765625q0.5625 -0.484375 0.875 -1.203125q0.328125 -0.71875 0.328125 -1.65625q0 -0.453125 -0.109375 -0.90625q-0.09375 -0.46875 -0.359375 -0.890625q-0.265625 -0.421875 -0.703125 -0.75q-0.421875 -0.34375 -1.078125 -0.5625q0.546875 -0.21875 0.921875 -0.5625q0.390625 -0.34375 0.640625 -0.734375q0.25 -0.375 0.359375 -0.78125q0.125 -0.421875 0.125 -0.796875q0 -0.921875 -0.296875 -1.625q-0.28125 -0.703125 -0.8125 -1.171875q-0.53125 -0.484375 -1.265625 -0.71875q-0.734375 -0.25 -1.625 -0.25q-0.921875 0 -1.6875 0.296875q-0.75 0.28125 -1.28125 0.78125q-0.53125 0.5 -0.828125 1.171875q-0.296875 0.65625 -0.296875 1.421875l1.6875 0q0 -0.515625 0.171875 -0.9375q0.171875 -0.421875 0.5 -0.71875q0.3125 -0.296875 0.75 -0.453125q0.4375 -0.171875 0.984375 -0.171875q0.546875 0 0.984375 0.140625q0.4375 0.140625 0.71875 0.421875q0.296875 0.296875 0.453125 0.734375q0.15625 0.4375 0.15625 1.03125q0 0.5 -0.171875 0.921875q-0.171875 0.421875 -0.5 0.71875q-0.328125 0.3125 -0.828125 0.484375q-0.484375 0.171875 -1.125 0.171875l-1.203125 0z" fill-rule="nonzero"/><path fill="#fce5cd" d="m341.91278 367.39896l135.08664 0l0 52.97638l-135.08664 0z" fill-rule="evenodd"/><path stroke="#000000" stroke-width="1.0" stroke-linejoin="round" stroke-linecap="butt" d="m341.91278 367.39896l135.08664 0l0 52.97638l-135.08664 0z" fill-rule="evenodd"/><path fill="#000000" d="m402.29984 400.80713l0 -1.875l1.875 0l0 1.875l-1.875 0zm6.234375 0l0 -1.875l1.859375 0l0 1.875l-1.859375 0zm6.203125 0l0 -1.875l1.875 0l0 1.875l-1.875 0z" fill-rule="nonzero"/><path fill="#cfe2f3" d="m756.6752 218.928l0 0c0 -4.8764343 3.953186 -8.829575 8.82959 -8.829575l200.4826 0c2.3417358 0 4.5875854 0.93026733 6.243469 2.5861206c1.6558228 1.6558685 2.5861206 3.901703 2.5861206 6.243454l0 35.31723c0 4.8764496 -3.953186 8.829575 -8.82959 8.829575l-200.4826 0c-4.876404 0 -8.82959 -3.953125 -8.82959 -8.829575z" fill-rule="evenodd"/><path stroke="#000000" stroke-width="1.0" stroke-linejoin="round" stroke-linecap="butt" d="m756.6752 218.928l0 0c0 -4.8764343 3.953186 -8.829575 8.82959 -8.829575l200.4826 0c2.3417358 0 4.5875854 0.93026733 6.243469 2.5861206c1.6558228 1.6558685 2.5861206 3.901703 2.5861206 6.243454l0 35.31723c0 4.8764496 -3.953186 8.829575 -8.82959 8.829575l-200.4826 0c-4.876404 0 -8.82959 -3.953125 -8.82959 -8.829575z" fill-rule="evenodd"/><path fill="#ead1dc" d="m756.6752 280.3217l0 0c0 -4.8764343 3.953186 -8.829559 8.82959 -8.829559l200.4826 0c2.3417358 0 4.5875854 0.93026733 6.243469 2.5861206c1.6558228 1.6558533 2.5861206 3.901703 2.5861206 6.2434387l0 35.31723c0 4.876465 -3.953186 8.82959 -8.82959 8.82959l-200.4826 0c-4.876404 0 -8.82959 -3.953125 -8.82959 -8.82959z" fill-rule="evenodd"/><path stroke="#000000" stroke-width="1.0" stroke-linejoin="round" stroke-linecap="butt" d="m756.6752 280.3217l0 0c0 -4.8764343 3.953186 -8.829559 8.82959 -8.829559l200.4826 0c2.3417358 0 4.5875854 0.93026733 6.243469 2.5861206c1.6558228 1.6558533 2.5861206 3.901703 2.5861206 6.2434387l0 35.31723c0 4.876465 -3.953186 8.82959 -8.82959 8.82959l-200.4826 0c-4.876404 0 -8.82959 -3.953125 -8.82959 -8.82959z" fill-rule="evenodd"/><path fill="#000000" d="m778.7243 302.29092q0 0.234375 -0.09375 0.453125q-0.09375 0.203125 -0.265625 0.375q-0.28125 0.28125 -0.78125 0.4375q-0.5 0.15625 -1.171875 0.15625q-0.4375 0 -0.875 -0.078125q-0.4375 -0.09375 -0.796875 -0.3125q-0.359375 -0.21875 -0.609375 -0.578125q-0.234375 -0.359375 -0.265625 -0.875l-1.6875 0q0 0.625 0.28125 1.21875q0.296875 0.578125 0.84375 1.015625q0.53125 0.4375 1.3125 0.71875q0.78125 0.265625 1.796875 0.265625q0.875 0 1.609375 -0.203125q0.734375 -0.21875 1.265625 -0.609375q0.53125 -0.375 0.8125 -0.90625q0.296875 -0.546875 0.296875 -1.203125q0 -0.609375 -0.265625 -1.0625q-0.25 -0.46875 -0.734375 -0.828125q-0.5 -0.34375 -1.21875 -0.59375q-0.71875 -0.25 -1.625 -0.453125q-0.6875 -0.125 -1.140625 -0.265625q-0.453125 -0.15625 -0.71875 -0.34375q-0.28125 -0.171875 -0.390625 -0.40625q-0.109375 -0.234375 -0.109375 -0.515625q0 -0.28125 0.140625 -0.546875q0.140625 -0.265625 0.40625 -0.46875q0.265625 -0.203125 0.671875 -0.3125q0.40625 -0.125 0.953125 -0.125q0.515625 0 0.921875 0.15625q0.421875 0.140625 0.71875 0.375q0.28125 0.234375 0.4375 0.546875q0.171875 0.296875 0.171875 0.625l1.6875 0q0 -0.65625 -0.28125 -1.21875q-0.265625 -0.5625 -0.78125 -0.96875q-0.515625 -0.421875 -1.25 -0.65625q-0.71875 -0.234375 -1.625 -0.234375q-0.859375 0 -1.5625 0.234375q-0.703125 0.21875 -1.21875 0.609375q-0.5 0.390625 -0.78125 0.921875q-0.28125 0.515625 -0.28125 1.109375q0 0.609375 0.265625 1.078125q0.28125 0.453125 0.78125 0.796875q0.484375 0.34375 1.171875 0.59375q0.703125 0.234375 1.5625 0.421875q0.6875 0.125 1.140625 0.296875q0.46875 0.171875 0.75 0.375q0.28125 0.203125 0.40625 0.4375q0.125 0.234375 0.125 0.546875zm4.8987427 -7.25l0 1.46875l3.359375 0l0 6.9375l-3.359375 0l0 1.453125l8.265625 0l0 -1.453125l-3.21875 0l0 -8.40625l-5.046875 0zm3.140625 -2.578125q0 0.40625 0.25 0.6875q0.25 0.265625 0.765625 0.265625q0.5 0 0.75 -0.265625q0.25 -0.28125 0.25 -0.6875q0 -0.234375 -0.078125 -0.421875q-0.0625 -0.1875 -0.203125 -0.328125q-0.125 -0.109375 -0.3125 -0.171875q-0.171875 -0.078125 -0.40625 -0.078125q-0.25 0 -0.4375 0.078125q-0.171875 0.0625 -0.296875 0.171875q-0.140625 0.140625 -0.21875 0.34375q-0.0625 0.1875 -0.0625 0.40625zm7.7893066 12.4375l1.6875 0l0 -7.0625q0.171875 -0.328125 0.40625 -0.59375q0.234375 -0.265625 0.515625 -0.453125q0.328125 -0.234375 0.71875 -0.359375q0.40625 -0.140625 0.875 -0.140625q0.546875 0 0.953125 0.125q0.421875 0.125 0.703125 0.40625q0.28125 0.296875 0.421875 0.75q0.15625 0.453125 0.15625 1.109375l0 6.21875l1.6875 0l0 -6.265625q0 -0.96875 -0.25 -1.6875q-0.234375 -0.71875 -0.6875 -1.1875q-0.4375 -0.453125 -1.078125 -0.671875q-0.625 -0.21875 -1.40625 -0.21875q-0.5625 0 -1.078125 0.171875q-0.515625 0.15625 -0.953125 0.4375q-0.296875 0.1875 -0.5625 0.453125q-0.25 0.265625 -0.46875 0.5625l-0.125 -1.453125l-1.515625 0l0 9.859375zm10.898682 -5.015625l0 0.203125q0 1.046875 0.265625 1.96875q0.28125 0.90625 0.78125 1.59375q0.5 0.671875 1.234375 1.0625q0.734375 0.375 1.625 0.375q0.546875 0 1.0 -0.125q0.46875 -0.109375 0.859375 -0.3125q0.234375 -0.140625 0.453125 -0.3125q0.21875 -0.1875 0.40625 -0.40625l0 0.84375q0 0.640625 -0.1875 1.125q-0.171875 0.5 -0.515625 0.828125q-0.34375 0.328125 -0.828125 0.5q-0.484375 0.171875 -1.078125 0.171875q-0.34375 0 -0.6875 -0.0625q-0.328125 -0.0625 -0.671875 -0.21875q-0.328125 -0.15625 -0.65625 -0.421875q-0.328125 -0.25 -0.640625 -0.625l-0.875 1.0q0.34375 0.484375 0.8125 0.8125q0.46875 0.328125 0.96875 0.515625q0.5 0.203125 0.984375 0.28125q0.5 0.09375 0.890625 0.09375q0.921875 0 1.6875 -0.28125q0.765625 -0.265625 1.328125 -0.78125q0.546875 -0.53125 0.84375 -1.296875q0.3125 -0.75 0.3125 -1.71875l0 -9.65625l-1.53125 0l-0.078125 1.078125q-0.171875 -0.21875 -0.375 -0.390625q-0.1875 -0.1875 -0.40625 -0.328125q-0.40625 -0.265625 -0.90625 -0.390625q-0.5 -0.140625 -1.09375 -0.140625q-0.90625 0 -1.640625 0.375q-0.734375 0.359375 -1.234375 1.03125q-0.515625 0.65625 -0.78125 1.59375q-0.265625 0.921875 -0.265625 2.015625zm1.671875 0.203125l0 -0.203125q0 -0.71875 0.15625 -1.359375q0.15625 -0.65625 0.484375 -1.15625q0.3125 -0.5 0.8125 -0.78125q0.515625 -0.296875 1.21875 -0.296875q0.421875 0 0.765625 0.109375q0.34375 0.09375 0.625 0.28125q0.296875 0.1875 0.515625 0.453125q0.21875 0.25 0.375 0.5625l0 4.515625q-0.15625 0.3125 -0.375 0.578125q-0.21875 0.265625 -0.5 0.453125q-0.28125 0.203125 -0.640625 0.3125q-0.34375 0.09375 -0.78125 0.09375q-0.703125 0 -1.203125 -0.28125q-0.5 -0.296875 -0.8125 -0.78125q-0.328125 -0.5 -0.484375 -1.140625q-0.15625 -0.640625 -0.15625 -1.359375zm10.086182 -9.1875l0 1.46875l3.359375 0l0 11.078125l-3.359375 0l0 1.453125l8.265625 0l0 -1.453125l-3.21875 0l0 -12.546875l-5.046875 0zm15.289368 14.1875q1.4375 0 2.421875 -0.578125q0.984375 -0.578125 1.46875 -1.328125l-1.03125 -0.796875q-0.46875 0.59375 -1.171875 0.96875q-0.6875 0.359375 -1.59375 0.359375q-0.6875 0 -1.25 -0.25q-0.5625 -0.265625 -0.96875 -0.71875q-0.390625 -0.40625 -0.609375 -0.953125q-0.21875 -0.546875 -0.28125 -1.265625l0 -0.078125l7.03125 0l0 -0.75q0 -1.03125 -0.265625 -1.90625q-0.25 -0.890625 -0.78125 -1.546875q-0.53125 -0.640625 -1.328125 -1.0q-0.796875 -0.375 -1.859375 -0.375q-0.84375 0 -1.65625 0.34375q-0.796875 0.34375 -1.4375 0.984375q-0.625 0.65625 -1.015625 1.609375q-0.375 0.9375 -0.375 2.125l0 0.390625q0 1.03125 0.34375 1.90625q0.34375 0.875 0.96875 1.5q0.609375 0.640625 1.484375 1.0q0.875 0.359375 1.90625 0.359375zm-0.21875 -8.84375q0.65625 0 1.125 0.234375q0.46875 0.234375 0.765625 0.625q0.3125 0.375 0.484375 0.90625q0.171875 0.515625 0.171875 0.984375l0 0.078125l-5.296875 0q0.09375 -0.6875 0.34375 -1.203125q0.265625 -0.53125 0.625 -0.890625q0.359375 -0.359375 0.8125 -0.546875q0.453125 -0.1875 0.96875 -0.1875zm11.054932 -3.59375l-1.703125 0l0 2.390625l-2.578125 0l0 1.3125l2.578125 0l0 5.34375q0 0.921875 0.234375 1.5625q0.25 0.640625 0.671875 1.046875q0.421875 0.40625 0.984375 0.59375q0.578125 0.1875 1.234375 0.1875q0.390625 0 0.78125 -0.046875q0.40625 -0.03125 0.75 -0.109375q0.359375 -0.0625 0.65625 -0.15625q0.296875 -0.09375 0.515625 -0.21875l-0.234375 -1.203125q-0.15625 0.046875 -0.40625 0.09375q-0.234375 0.046875 -0.515625 0.09375q-0.28125 0.046875 -0.578125 0.078125q-0.28125 0.03125 -0.546875 0.03125q-0.375 0 -0.71875 -0.09375q-0.328125 -0.09375 -0.578125 -0.3125q-0.265625 -0.21875 -0.40625 -0.59375q-0.140625 -0.375 -0.140625 -0.953125l0 -5.34375l3.75 0l0 -1.3125l-3.75 0l0 -2.390625zm6.7268066 7.234375l0 0.203125q0 1.0625 0.3125 1.96875q0.3125 0.90625 0.890625 1.59375q0.578125 0.671875 1.40625 1.0625q0.84375 0.375 1.890625 0.375q1.03125 0 1.859375 -0.375q0.828125 -0.390625 1.40625 -1.0625q0.578125 -0.6875 0.890625 -1.59375q0.3125 -0.90625 0.3125 -1.96875l0 -0.203125q0 -1.0625 -0.3125 -1.984375q-0.3125 -0.921875 -0.890625 -1.59375q-0.578125 -0.671875 -1.421875 -1.046875q-0.828125 -0.390625 -1.875 -0.390625q-1.03125 0 -1.859375 0.390625q-0.828125 0.375 -1.40625 1.046875q-0.578125 0.671875 -0.890625 1.59375q-0.3125 0.921875 -0.3125 1.984375zm1.6875 0.203125l0 -0.203125q0 -0.71875 0.171875 -1.375q0.171875 -0.671875 0.53125 -1.171875q0.34375 -0.5 0.859375 -0.796875q0.515625 -0.296875 1.21875 -0.296875q0.703125 0 1.21875 0.296875q0.53125 0.296875 0.890625 0.796875q0.34375 0.5 0.515625 1.171875q0.1875 0.65625 0.1875 1.375l0 0.203125q0 0.71875 -0.171875 1.390625q-0.171875 0.65625 -0.515625 1.15625q-0.359375 0.5 -0.890625 0.796875q-0.515625 0.28125 -1.203125 0.28125q-0.703125 0 -1.234375 -0.28125q-0.53125 -0.296875 -0.875 -0.796875q-0.359375 -0.5 -0.53125 -1.15625q-0.171875 -0.671875 -0.171875 -1.390625zm9.976807 4.8125l1.6875 0l0 -7.0625q0.171875 -0.328125 0.40625 -0.59375q0.234375 -0.265625 0.515625 -0.453125q0.328125 -0.234375 0.71875 -0.359375q0.40625 -0.140625 0.875 -0.140625q0.546875 0 0.953125 0.125q0.421875 0.125 0.703125 0.40625q0.28125 0.296875 0.421875 0.75q0.15625 0.453125 0.15625 1.109375l0 6.21875l1.6875 0l0 -6.265625q0 -0.96875 -0.25 -1.6875q-0.234375 -0.71875 -0.6875 -1.1875q-0.4375 -0.453125 -1.078125 -0.671875q-0.625 -0.21875 -1.40625 -0.21875q-0.5625 0 -1.078125 0.171875q-0.515625 0.15625 -0.953125 0.4375q-0.296875 0.1875 -0.5625 0.453125q-0.25 0.265625 -0.46875 0.5625l-0.125 -1.453125l-1.515625 0l0 9.859375zm24.297424 -1.4375l0 -11.828125l-1.6875 0l0 13.265625l8.171875 0l0 -1.4375l-6.484375 0zm15.773682 1.4375l1.75 0l0 -0.140625q-0.15625 -0.421875 -0.25 -0.96875q-0.09375 -0.546875 -0.09375 -1.046875l0 -4.578125q0 -0.828125 -0.296875 -1.4375q-0.296875 -0.625 -0.8125 -1.046875q-0.53125 -0.40625 -1.25 -0.609375q-0.71875 -0.203125 -1.5625 -0.203125q-0.921875 0 -1.65625 0.25q-0.71875 0.25 -1.21875 0.65625q-0.5 0.421875 -0.78125 0.953125q-0.265625 0.515625 -0.265625 1.046875l1.6875 0q0 -0.3125 0.140625 -0.59375q0.15625 -0.28125 0.4375 -0.5q0.265625 -0.203125 0.65625 -0.328125q0.40625 -0.140625 0.90625 -0.140625q0.546875 0 0.96875 0.140625q0.4375 0.140625 0.734375 0.390625q0.296875 0.25 0.453125 0.609375q0.171875 0.34375 0.171875 0.796875l0 0.78125l-1.828125 0q-1.03125 0 -1.875 0.203125q-0.828125 0.1875 -1.421875 0.59375q-0.59375 0.40625 -0.921875 1.015625q-0.3125 0.609375 -0.3125 1.421875q0 0.625 0.234375 1.15625q0.25 0.53125 0.6875 0.90625q0.4375 0.40625 1.0625 0.640625q0.640625 0.21875 1.4375 0.21875q0.46875 0 0.890625 -0.109375q0.4375 -0.09375 0.828125 -0.265625q0.375 -0.171875 0.6875 -0.390625q0.3125 -0.234375 0.5625 -0.5q0.03125 0.3125 0.09375 0.609375q0.0625 0.28125 0.15625 0.46875zm-2.984375 -1.28125q-0.484375 0 -0.859375 -0.125q-0.375 -0.140625 -0.625 -0.359375q-0.234375 -0.21875 -0.359375 -0.53125q-0.125 -0.3125 -0.125 -0.671875q0 -0.390625 0.140625 -0.6875q0.140625 -0.296875 0.40625 -0.515625q0.390625 -0.3125 1.03125 -0.453125q0.65625 -0.15625 1.53125 -0.15625l1.5625 0l0 2.0q-0.140625 0.28125 -0.40625 0.5625q-0.25 0.265625 -0.59375 0.46875q-0.34375 0.203125 -0.78125 0.34375q-0.421875 0.125 -0.921875 0.125zm8.476807 -8.578125l-1.515625 0l0 9.859375l1.609375 0l0 -7.84375q0.046875 -0.140625 0.125 -0.265625q0.09375 -0.140625 0.21875 -0.234375q0.15625 -0.125 0.375 -0.1875q0.21875 -0.078125 0.53125 -0.078125q0.265625 0 0.46875 0.078125q0.203125 0.0625 0.34375 0.203125q0.15625 0.15625 0.21875 0.390625q0.0625 0.234375 0.0625 0.546875l0 7.390625l1.609375 0l0 -7.375q0 -0.0625 0 -0.09375q0 -0.046875 0 -0.09375q0.03125 -0.21875 0.109375 -0.40625q0.078125 -0.1875 0.21875 -0.34375q0.15625 -0.125 0.375 -0.203125q0.21875 -0.09375 0.515625 -0.09375q0.28125 0 0.484375 0.078125q0.21875 0.0625 0.375 0.21875q0.140625 0.15625 0.203125 0.390625q0.078125 0.234375 0.078125 0.546875l0 7.375l1.59375 0l0 -7.359375q0 -0.71875 -0.171875 -1.234375q-0.15625 -0.53125 -0.453125 -0.859375q-0.28125 -0.28125 -0.703125 -0.421875q-0.40625 -0.15625 -0.921875 -0.15625q-0.359375 0 -0.6875 0.09375q-0.3125 0.09375 -0.5625 0.25q-0.203125 0.125 -0.375 0.3125q-0.171875 0.1875 -0.296875 0.390625q-0.109375 -0.21875 -0.25 -0.40625q-0.140625 -0.1875 -0.3125 -0.3125q-0.234375 -0.15625 -0.546875 -0.234375q-0.3125 -0.09375 -0.703125 -0.09375q-0.6875 0 -1.1875 0.296875q-0.484375 0.28125 -0.78125 0.8125l-0.046875 -0.9375zm18.773682 5.046875l0 -0.203125q0 -0.765625 -0.125 -1.453125q-0.125 -0.703125 -0.375 -1.28125q-0.234375 -0.515625 -0.546875 -0.921875q-0.3125 -0.421875 -0.703125 -0.703125q-0.4375 -0.3125 -0.984375 -0.484375q-0.53125 -0.171875 -1.15625 -0.171875q-0.515625 0 -0.953125 0.09375q-0.4375 0.09375 -0.796875 0.296875q-0.296875 0.15625 -0.5625 0.375q-0.25 0.203125 -0.453125 0.46875l0 -5.203125l-1.6875 0l0 14.0l1.546875 0l0.078125 -1.125q0.171875 0.21875 0.34375 0.390625q0.1875 0.171875 0.390625 0.3125q0.421875 0.296875 0.9375 0.453125q0.53125 0.15625 1.171875 0.15625q0.546875 0 1.015625 -0.140625q0.484375 -0.140625 0.890625 -0.390625q0.5625 -0.34375 0.953125 -0.890625q0.390625 -0.546875 0.640625 -1.21875q0.1875 -0.53125 0.28125 -1.125q0.09375 -0.59375 0.09375 -1.234375zm-1.6875 -0.203125l0 0.203125q0 0.4375 -0.0625 0.859375q-0.046875 0.40625 -0.15625 0.78125q-0.15625 0.46875 -0.40625 0.875q-0.234375 0.390625 -0.609375 0.640625q-0.265625 0.203125 -0.609375 0.3125q-0.34375 0.09375 -0.765625 0.09375q-0.4375 0 -0.8125 -0.109375q-0.359375 -0.109375 -0.640625 -0.328125q-0.296875 -0.203125 -0.53125 -0.484375q-0.21875 -0.28125 -0.375 -0.609375l0 -4.3125q0.15625 -0.328125 0.375 -0.59375q0.21875 -0.28125 0.515625 -0.5q0.28125 -0.1875 0.640625 -0.296875q0.375 -0.125 0.8125 -0.125q0.390625 0 0.71875 0.09375q0.328125 0.09375 0.59375 0.25q0.390625 0.234375 0.65625 0.640625q0.265625 0.390625 0.421875 0.875q0.125 0.390625 0.171875 0.84375q0.0625 0.4375 0.0625 0.890625zm4.2112427 0l0 0.203125q0 1.046875 0.28125 1.96875q0.28125 0.90625 0.796875 1.59375q0.5 0.671875 1.21875 1.0625q0.734375 0.375 1.625 0.375q0.921875 0 1.59375 -0.3125q0.6875 -0.3125 1.1875 -0.90625l0.0625 1.03125l1.546875 0l0 -14.0l-1.6875 0l0 5.125q-0.46875 -0.578125 -1.140625 -0.859375q-0.65625 -0.296875 -1.546875 -0.296875q-0.890625 0 -1.625 0.375q-0.734375 0.359375 -1.234375 1.03125q-0.515625 0.65625 -0.796875 1.59375q-0.28125 0.921875 -0.28125 2.015625zm1.6875 0.203125l0 -0.203125q0 -0.71875 0.15625 -1.359375q0.15625 -0.65625 0.484375 -1.15625q0.3125 -0.5 0.8125 -0.78125q0.515625 -0.296875 1.21875 -0.296875q0.828125 0 1.375 0.390625q0.5625 0.390625 0.890625 0.984375l0 4.578125q-0.328125 0.640625 -0.890625 1.03125q-0.546875 0.375 -1.390625 0.375q-0.703125 0 -1.203125 -0.28125q-0.5 -0.296875 -0.8125 -0.78125q-0.328125 -0.5 -0.484375 -1.140625q-0.15625 -0.640625 -0.15625 -1.359375zm16.304932 4.8125l1.75 0l0 -0.140625q-0.15625 -0.421875 -0.25 -0.96875q-0.09375 -0.546875 -0.09375 -1.046875l0 -4.578125q0 -0.828125 -0.296875 -1.4375q-0.296875 -0.625 -0.8125 -1.046875q-0.53125 -0.40625 -1.25 -0.609375q-0.71875 -0.203125 -1.5625 -0.203125q-0.921875 0 -1.65625 0.25q-0.71875 0.25 -1.21875 0.65625q-0.5 0.421875 -0.78125 0.953125q-0.265625 0.515625 -0.265625 1.046875l1.6875 0q0 -0.3125 0.140625 -0.59375q0.15625 -0.28125 0.4375 -0.5q0.265625 -0.203125 0.65625 -0.328125q0.40625 -0.140625 0.90625 -0.140625q0.546875 0 0.96875 0.140625q0.4375 0.140625 0.734375 0.390625q0.296875 0.25 0.453125 0.609375q0.171875 0.34375 0.171875 0.796875l0 0.78125l-1.828125 0q-1.03125 0 -1.875 0.203125q-0.828125 0.1875 -1.421875 0.59375q-0.59375 0.40625 -0.921875 1.015625q-0.3125 0.609375 -0.3125 1.421875q0 0.625 0.234375 1.15625q0.25 0.53125 0.6875 0.90625q0.4375 0.40625 1.0625 0.640625q0.640625 0.21875 1.4375 0.21875q0.46875 0 0.890625 -0.109375q0.4375 -0.09375 0.828125 -0.265625q0.375 -0.171875 0.6875 -0.390625q0.3125 -0.234375 0.5625 -0.5q0.03125 0.3125 0.09375 0.609375q0.0625 0.28125 0.15625 0.46875zm-2.984375 -1.28125q-0.484375 0 -0.859375 -0.125q-0.375 -0.140625 -0.625 -0.359375q-0.234375 -0.21875 -0.359375 -0.53125q-0.125 -0.3125 -0.125 -0.671875q0 -0.390625 0.140625 -0.6875q0.140625 -0.296875 0.40625 -0.515625q0.390625 -0.3125 1.03125 -0.453125q0.65625 -0.15625 1.53125 -0.15625l1.5625 0l0 2.0q-0.140625 0.28125 -0.40625 0.5625q-0.25 0.265625 -0.59375 0.46875q-0.34375 0.203125 -0.78125 0.34375q-0.421875 0.125 -0.921875 0.125zm13.164307 1.28125l0 -13.265625l-0.125 0l-5.03125 1.9375l0 1.53125l3.46875 -1.3125l0 11.109375l1.6875 0z" fill-rule="nonzero"/><path fill="#cfe2f3" d="m756.6752 341.7154l0 0c0 -4.8764343 3.953186 -8.829559 8.82959 -8.829559l200.4826 0c2.3417358 0 4.5875854 0.9302368 6.243469 2.5861206c1.6558228 1.6558533 2.5861206 3.901703 2.5861206 6.2434387l0 35.31723c0 4.8764343 -3.953186 8.82959 -8.82959 8.82959l-200.4826 0c-4.876404 0 -8.82959 -3.9531555 -8.82959 -8.82959z" fill-rule="evenodd"/><path stroke="#000000" stroke-width="1.0" stroke-linejoin="round" stroke-linecap="butt" d="m756.6752 341.7154l0 0c0 -4.8764343 3.953186 -8.829559 8.82959 -8.829559l200.4826 0c2.3417358 0 4.5875854 0.9302368 6.243469 2.5861206c1.6558228 1.6558533 2.5861206 3.901703 2.5861206 6.2434387l0 35.31723c0 4.8764343 -3.953186 8.82959 -8.82959 8.82959l-200.4826 0c-4.876404 0 -8.82959 -3.9531555 -8.82959 -8.82959z" fill-rule="evenodd"/><path fill="#c9daf8" d="m1040.7947 81.808395l258.7401 0l0 370.2677l-258.7401 0z" fill-rule="evenodd"/><path stroke="#000000" stroke-width="1.0" stroke-linejoin="round" stroke-linecap="butt" d="m1040.7947 81.808395l258.7401 0l0 370.2677l-258.7401 0z" fill-rule="evenodd"/><path fill="#000000" fill-opacity="0.0" d="m1040.7947 81.808395l258.7401 0l0 46.86615l-258.7401 0z" fill-rule="evenodd"/><path stroke="#000000" stroke-width="1.0" stroke-linejoin="round" stroke-linecap="butt" d="m1040.7947 81.808395l258.7401 0l0 46.86615l-258.7401 0z" fill-rule="evenodd"/><path fill="#000000" d="m1092.1503 108.49027q0 0.671875 -0.296875 1.15625q-0.28125 0.484375 -0.734375 0.78125q-0.453125 0.328125 -1.046875 0.484375q-0.578125 0.140625 -1.171875 0.140625q-0.75 0 -1.390625 -0.203125q-0.625 -0.203125 -1.109375 -0.609375q-0.5 -0.40625 -0.8125 -0.984375q-0.296875 -0.578125 -0.40625 -1.328125l-2.078125 0q0.03125 1.03125 0.453125 1.890625q0.421875 0.84375 1.15625 1.46875q0.8125 0.734375 1.921875 1.125q1.125 0.375 2.265625 0.375q0.96875 0 1.921875 -0.265625q0.96875 -0.28125 1.734375 -0.8125q0.765625 -0.53125 1.234375 -1.34375q0.484375 -0.8125 0.484375 -1.890625q0 -1.078125 -0.453125 -1.890625q-0.4375 -0.8125 -1.171875 -1.390625q-0.734375 -0.59375 -1.640625 -0.984375q-0.890625 -0.40625 -1.78125 -0.671875q-0.546875 -0.171875 -1.15625 -0.390625q-0.609375 -0.21875 -1.140625 -0.5625q-0.53125 -0.328125 -0.875 -0.796875q-0.34375 -0.484375 -0.34375 -1.1875q0 -0.640625 0.25 -1.125q0.265625 -0.484375 0.703125 -0.828125q0.4375 -0.328125 0.984375 -0.484375q0.5625 -0.171875 1.15625 -0.171875q0.734375 0 1.3125 0.234375q0.578125 0.21875 1.0 0.625q0.421875 0.40625 0.671875 0.984375q0.25 0.5625 0.34375 1.265625l2.109375 0q-0.03125 -1.109375 -0.484375 -2.0q-0.453125 -0.90625 -1.203125 -1.53125q-0.75 -0.625 -1.734375 -0.96875q-0.96875 -0.359375 -2.015625 -0.359375q-0.953125 0 -1.890625 0.296875q-0.9375 0.296875 -1.6875 0.859375q-0.734375 0.5625 -1.203125 1.390625q-0.453125 0.8125 -0.453125 1.84375q0 1.046875 0.453125 1.8125q0.46875 0.765625 1.1875 1.328125q0.734375 0.5625 1.609375 0.953125q0.875 0.390625 1.734375 0.671875q0.578125 0.1875 1.21875 0.421875q0.640625 0.21875 1.171875 0.5625q0.53125 0.359375 0.859375 0.875q0.34375 0.5 0.34375 1.234375zm10.002319 -10.796875l-2.046875 0l0 2.90625l-3.140625 0l0 1.578125l3.140625 0l0 6.5q0 1.109375 0.28125 1.890625q0.296875 0.78125 0.8125 1.265625q0.5 0.5 1.1875 0.734375q0.703125 0.21875 1.5 0.21875q0.46875 0 0.953125 -0.046875q0.484375 -0.046875 0.90625 -0.125q0.4375 -0.078125 0.796875 -0.1875q0.375 -0.125 0.625 -0.28125l-0.28125 -1.453125q-0.1875 0.046875 -0.484375 0.109375q-0.296875 0.0625 -0.625 0.125q-0.34375 0.046875 -0.703125 0.09375q-0.34375 0.03125 -0.6875 0.03125q-0.453125 0 -0.859375 -0.109375q-0.390625 -0.109375 -0.703125 -0.390625q-0.3125 -0.265625 -0.5 -0.71875q-0.171875 -0.453125 -0.171875 -1.15625l0 -6.5l4.5625 0l0 -1.578125l-4.5625 0l0 -2.90625zm16.627197 14.875l2.125 0l0 -0.171875q-0.203125 -0.5 -0.3125 -1.171875q-0.109375 -0.671875 -0.109375 -1.265625l0 -5.5625q0 -1.015625 -0.359375 -1.765625q-0.359375 -0.75 -1.0 -1.265625q-0.640625 -0.484375 -1.515625 -0.734375q-0.875 -0.25 -1.890625 -0.25q-1.109375 0 -2.0 0.3125q-0.875 0.296875 -1.484375 0.796875q-0.609375 0.515625 -0.9375 1.15625q-0.328125 0.625 -0.34375 1.265625l2.0625 0q0 -0.375 0.171875 -0.71875q0.1875 -0.34375 0.515625 -0.609375q0.34375 -0.25 0.8125 -0.40625q0.484375 -0.15625 1.09375 -0.15625q0.65625 0 1.171875 0.171875q0.53125 0.171875 0.890625 0.46875q0.375 0.296875 0.5625 0.734375q0.203125 0.4375 0.203125 0.96875l0 0.953125l-2.234375 0q-1.25 0 -2.265625 0.25q-1.0 0.234375 -1.71875 0.71875q-0.71875 0.5 -1.125 1.25q-0.390625 0.734375 -0.390625 1.71875q0 0.75 0.296875 1.40625q0.296875 0.640625 0.84375 1.09375q0.53125 0.484375 1.296875 0.765625q0.765625 0.265625 1.71875 0.265625q0.578125 0 1.09375 -0.125q0.53125 -0.109375 1.0 -0.328125q0.453125 -0.203125 0.828125 -0.484375q0.390625 -0.28125 0.6875 -0.59375q0.046875 0.390625 0.109375 0.734375q0.078125 0.34375 0.203125 0.578125zm-3.625 -1.5625q-0.59375 0 -1.046875 -0.15625q-0.453125 -0.15625 -0.75 -0.421875q-0.296875 -0.265625 -0.453125 -0.640625q-0.15625 -0.375 -0.15625 -0.828125q0 -0.46875 0.171875 -0.828125q0.171875 -0.359375 0.515625 -0.625q0.453125 -0.375 1.25 -0.5625q0.796875 -0.1875 1.859375 -0.1875l1.890625 0l0 2.421875q-0.171875 0.359375 -0.484375 0.6875q-0.3125 0.328125 -0.734375 0.578125q-0.421875 0.25 -0.953125 0.40625q-0.515625 0.15625 -1.109375 0.15625zm14.189697 -13.3125l-2.046875 0l0 2.90625l-3.140625 0l0 1.578125l3.140625 0l0 6.5q0 1.109375 0.28125 1.890625q0.296875 0.78125 0.8125 1.265625q0.5 0.5 1.1875 0.734375q0.703125 0.21875 1.5 0.21875q0.46875 0 0.953125 -0.046875q0.484375 -0.046875 0.90625 -0.125q0.4375 -0.078125 0.796875 -0.1875q0.375 -0.125 0.625 -0.28125l-0.28125 -1.453125q-0.1875 0.046875 -0.484375 0.109375q-0.296875 0.0625 -0.625 0.125q-0.34375 0.046875 -0.703125 0.09375q-0.34375 0.03125 -0.6875 0.03125q-0.453125 0 -0.859375 -0.109375q-0.390625 -0.109375 -0.703125 -0.390625q-0.3125 -0.265625 -0.5 -0.71875q-0.171875 -0.453125 -0.171875 -1.15625l0 -6.5l4.5625 0l0 -1.578125l-4.5625 0l0 -2.90625zm9.080322 2.90625l0 1.78125l4.0625 0l0 8.421875l-4.0625 0l0 1.765625l10.015625 0l0 -1.765625l-3.90625 0l0 -10.203125l-6.109375 0zm3.796875 -3.140625q0 0.5 0.296875 0.828125q0.3125 0.328125 0.9375 0.328125q0.609375 0 0.90625 -0.328125q0.3125 -0.328125 0.3125 -0.828125q0 -0.28125 -0.09375 -0.515625q-0.078125 -0.234375 -0.25 -0.375q-0.140625 -0.15625 -0.375 -0.234375q-0.21875 -0.078125 -0.5 -0.078125q-0.296875 0 -0.53125 0.078125q-0.21875 0.078125 -0.359375 0.234375q-0.171875 0.15625 -0.265625 0.390625q-0.078125 0.234375 -0.078125 0.5zm14.580322 13.671875q-0.96875 0 -1.625 -0.375q-0.640625 -0.390625 -1.03125 -1.015625q-0.390625 -0.59375 -0.5625 -1.359375q-0.171875 -0.78125 -0.171875 -1.5625l0 -0.46875q0 -0.765625 0.171875 -1.53125q0.171875 -0.765625 0.5625 -1.390625q0.40625 -0.609375 1.046875 -0.984375q0.65625 -0.390625 1.609375 -0.390625q0.609375 0 1.140625 0.21875q0.546875 0.203125 0.9375 0.578125q0.375 0.359375 0.59375 0.84375q0.234375 0.484375 0.25 1.015625l1.9375 0q0 -0.90625 -0.375 -1.703125q-0.359375 -0.796875 -1.0 -1.375q-0.640625 -0.578125 -1.53125 -0.90625q-0.890625 -0.34375 -1.953125 -0.34375q-1.359375 0 -2.390625 0.484375q-1.015625 0.484375 -1.6875 1.296875q-0.6875 0.84375 -1.03125 1.921875q-0.34375 1.078125 -0.34375 2.265625l0 0.46875q0 1.1875 0.34375 2.265625q0.34375 1.078125 1.03125 1.90625q0.671875 0.828125 1.6875 1.3125q1.03125 0.484375 2.390625 0.484375q0.9375 0 1.8125 -0.328125q0.875 -0.328125 1.5625 -0.875q0.671875 -0.546875 1.0625 -1.265625q0.40625 -0.71875 0.421875 -1.515625l-1.9375 0q-0.015625 0.484375 -0.265625 0.921875q-0.234375 0.421875 -0.65625 0.734375q-0.40625 0.3125 -0.9375 0.5q-0.515625 0.171875 -1.0625 0.171875zm23.02002 -10.53125l-1.828125 0l0 11.96875l1.9375 0l0 -9.53125q0.078125 -0.171875 0.171875 -0.328125q0.109375 -0.15625 0.25 -0.28125q0.1875 -0.140625 0.453125 -0.21875q0.28125 -0.09375 0.640625 -0.09375q0.34375 0 0.59375 0.09375q0.25 0.078125 0.40625 0.25q0.1875 0.1875 0.265625 0.484375q0.078125 0.28125 0.078125 0.65625l0 8.96875l1.953125 0l0 -8.953125q0 -0.078125 0 -0.125q0 -0.046875 0 -0.109375q0.03125 -0.265625 0.125 -0.484375q0.109375 -0.234375 0.28125 -0.421875q0.171875 -0.15625 0.4375 -0.25q0.265625 -0.109375 0.640625 -0.109375q0.34375 0 0.59375 0.09375q0.265625 0.078125 0.4375 0.265625q0.171875 0.1875 0.25 0.46875q0.09375 0.28125 0.09375 0.671875l0 8.953125l1.953125 0l0 -8.9375q0 -0.859375 -0.203125 -1.5q-0.203125 -0.640625 -0.578125 -1.03125q-0.34375 -0.359375 -0.84375 -0.53125q-0.5 -0.1875 -1.109375 -0.1875q-0.453125 0 -0.84375 0.125q-0.375 0.109375 -0.6875 0.296875q-0.234375 0.15625 -0.453125 0.390625q-0.203125 0.21875 -0.359375 0.46875q-0.125 -0.28125 -0.296875 -0.5q-0.171875 -0.21875 -0.375 -0.375q-0.296875 -0.203125 -0.6875 -0.296875q-0.375 -0.109375 -0.84375 -0.109375q-0.84375 0 -1.4375 0.359375q-0.59375 0.359375 -0.953125 0.984375l-0.0625 -1.125zm17.955322 12.1875q1.734375 0 2.921875 -0.703125q1.203125 -0.703125 1.796875 -1.609375l-1.25 -0.96875q-0.5625 0.734375 -1.421875 1.171875q-0.84375 0.4375 -1.9375 0.4375q-0.828125 0 -1.515625 -0.296875q-0.6875 -0.3125 -1.171875 -0.859375q-0.484375 -0.515625 -0.75 -1.171875q-0.265625 -0.671875 -0.34375 -1.546875l0 -0.078125l8.546875 0l0 -0.90625q0 -1.25 -0.328125 -2.328125q-0.3125 -1.078125 -0.953125 -1.875q-0.640625 -0.78125 -1.609375 -1.21875q-0.96875 -0.453125 -2.25 -0.453125q-1.03125 0 -2.015625 0.421875q-0.984375 0.421875 -1.734375 1.203125q-0.78125 0.796875 -1.25 1.9375q-0.453125 1.140625 -0.453125 2.59375l0 0.46875q0 1.25 0.40625 2.3125q0.421875 1.0625 1.1875 1.828125q0.75 0.78125 1.796875 1.21875q1.0625 0.421875 2.328125 0.421875zm-0.265625 -10.734375q0.78125 0 1.34375 0.296875q0.578125 0.28125 0.953125 0.75q0.375 0.46875 0.578125 1.109375q0.21875 0.625 0.21875 1.1875l0 0.09375l-6.4375 0q0.125 -0.828125 0.421875 -1.46875q0.3125 -0.640625 0.75 -1.078125q0.4375 -0.4375 0.984375 -0.65625q0.5625 -0.234375 1.1875 -0.234375zm9.502319 -1.453125l-1.828125 0l0 11.96875l1.9375 0l0 -9.53125q0.078125 -0.171875 0.171875 -0.328125q0.109375 -0.15625 0.25 -0.28125q0.1875 -0.140625 0.453125 -0.21875q0.28125 -0.09375 0.640625 -0.09375q0.34375 0 0.59375 0.09375q0.25 0.078125 0.40625 0.25q0.1875 0.1875 0.265625 0.484375q0.078125 0.28125 0.078125 0.65625l0 8.96875l1.953125 0l0 -8.953125q0 -0.078125 0 -0.125q0 -0.046875 0 -0.109375q0.03125 -0.265625 0.125 -0.484375q0.109375 -0.234375 0.28125 -0.421875q0.171875 -0.15625 0.4375 -0.25q0.265625 -0.109375 0.640625 -0.109375q0.34375 0 0.59375 0.09375q0.265625 0.078125 0.4375 0.265625q0.171875 0.1875 0.25 0.46875q0.09375 0.28125 0.09375 0.671875l0 8.953125l1.953125 0l0 -8.9375q0 -0.859375 -0.203125 -1.5q-0.203125 -0.640625 -0.578125 -1.03125q-0.34375 -0.359375 -0.84375 -0.53125q-0.5 -0.1875 -1.109375 -0.1875q-0.453125 0 -0.84375 0.125q-0.375 0.109375 -0.6875 0.296875q-0.234375 0.15625 -0.453125 0.390625q-0.203125 0.21875 -0.359375 0.46875q-0.125 -0.28125 -0.296875 -0.5q-0.171875 -0.21875 -0.375 -0.375q-0.296875 -0.203125 -0.6875 -0.296875q-0.375 -0.109375 -0.84375 -0.109375q-0.84375 0 -1.4375 0.359375q-0.59375 0.359375 -0.953125 0.984375l-0.0625 -1.125zm12.080322 5.875l0 0.234375q0 1.296875 0.375 2.40625q0.390625 1.109375 1.09375 1.921875q0.6875 0.828125 1.703125 1.296875q1.015625 0.453125 2.28125 0.453125q1.265625 0 2.265625 -0.453125q1.015625 -0.46875 1.71875 -1.296875q0.703125 -0.8125 1.078125 -1.921875q0.375 -1.109375 0.375 -2.40625l0 -0.234375q0 -1.296875 -0.375 -2.40625q-0.375 -1.109375 -1.078125 -1.9375q-0.703125 -0.8125 -1.71875 -1.28125q-1.015625 -0.46875 -2.28125 -0.46875q-1.265625 0 -2.28125 0.46875q-1.0 0.46875 -1.6875 1.28125q-0.703125 0.828125 -1.09375 1.9375q-0.375 1.109375 -0.375 2.40625zm2.046875 0.234375l0 -0.234375q0 -0.875 0.203125 -1.671875q0.21875 -0.8125 0.65625 -1.421875q0.421875 -0.609375 1.046875 -0.96875q0.625 -0.359375 1.484375 -0.359375q0.859375 0 1.484375 0.359375q0.640625 0.359375 1.078125 0.96875q0.40625 0.609375 0.625 1.421875q0.21875 0.796875 0.21875 1.671875l0 0.234375q0 0.890625 -0.21875 1.703125q-0.203125 0.796875 -0.625 1.40625q-0.421875 0.609375 -1.0625 0.96875q-0.640625 0.34375 -1.484375 0.34375q-0.84375 0 -1.484375 -0.34375q-0.640625 -0.359375 -1.0625 -0.96875q-0.4375 -0.609375 -0.65625 -1.40625q-0.203125 -0.8125 -0.203125 -1.703125zm19.970947 -6.328125q-1.296875 0 -2.328125 0.578125q-1.015625 0.5625 -1.75 1.546875l-0.015625 -0.296875l-0.078125 -1.609375l-1.953125 0l0 11.96875l2.0625 0l0 -7.671875q0.1875 -0.5625 0.484375 -1.0q0.3125 -0.453125 0.734375 -0.765625q0.453125 -0.359375 1.046875 -0.53125q0.609375 -0.1875 1.375 -0.1875q0.578125 0 1.109375 0.0625q0.546875 0.0625 1.140625 0.1875l0.28125 -2.0q-0.3125 -0.125 -0.9375 -0.203125q-0.609375 -0.078125 -1.171875 -0.078125zm6.7209473 17.015625q0.796875 0 1.421875 -0.296875q0.625 -0.296875 1.09375 -0.734375q0.453125 -0.4375 0.78125 -0.96875q0.328125 -0.515625 0.53125 -0.984375l6.078125 -13.8125l-2.28125 0l-3.09375 7.765625l-0.5625 1.40625l-0.53125 -1.453125l-3.28125 -7.71875l-2.296875 0l5.15625 11.40625l-0.8125 1.59375q-0.109375 0.21875 -0.3125 0.5625q-0.1875 0.34375 -0.453125 0.65625q-0.28125 0.328125 -0.625 0.5625q-0.34375 0.234375 -0.765625 0.234375q-0.15625 0 -0.4375 -0.015625q-0.265625 -0.015625 -0.546875 -0.046875l-0.328125 1.671875q0.203125 0.046875 0.578125 0.109375q0.390625 0.0625 0.6875 0.0625z" fill-rule="nonzero"/><path fill="#000000" fill-opacity="0.0" d="m974.81696 297.98032c42.15576 0 63.23285 -12.070862 84.311584 -24.141724c21.078735 -12.070862 42.15918 -24.141739 84.31836 -24.141739" fill-rule="evenodd"/><path stroke="#000000" stroke-width="1.0" stroke-linejoin="round" stroke-linecap="butt" d="m980.81635 297.89578l0.7310791 -0.02178955c0.3118286 -0.010040283 0.6224365 -0.02078247 0.93182373 -0.032196045c2.4752197 -0.09133911 4.873169 -0.2268982 7.1992188 -0.40371704c4.6519165 -0.3536377 9.015686 -0.87231445 13.132385 -1.5324402c8.2335205 -1.3202515 15.478943 -3.2063293 22.065735 -5.4696045c13.173584 -4.526581 23.712524 -10.562012 34.251953 -16.597443c10.539307 -6.035431 21.079102 -12.070862 34.25403 -16.597443c6.5872803 -2.2632904 13.833496 -4.1493683 22.067749 -5.4696198c4.1171875 -0.66012573 8.481323 -1.1788025 13.133789 -1.5324402c2.3261719 -0.17681885 4.724365 -0.31237793 7.199829 -0.4037323c0.30932617 -0.011413574 0.6199951 -0.022140503 0.93188477 -0.032180786l0.7315674 -0.02180481" fill-rule="evenodd"/><path fill="#000000" stroke="#000000" stroke-width="1.0" stroke-linecap="butt" d="m980.7931 296.24423l-4.5144043 1.7154846l4.560913 1.5876465z" fill-rule="evenodd"/><path fill="#000000" stroke="#000000" stroke-width="1.0" stroke-linecap="butt" d="m1137.4707 251.43294l4.5144043 -1.7154999l-4.560913 -1.5876465z" fill-rule="evenodd"/><path fill="#fce5cd" d="m1143.4403 223.19423l135.08667 0l0 52.976364l-135.08667 0z" fill-rule="evenodd"/><path stroke="#000000" stroke-width="1.0" stroke-linejoin="round" stroke-linecap="butt" d="m1143.4403 223.19423l135.08667 0l0 52.976364l-135.08667 0z" fill-rule="evenodd"/><path fill="#000000" d="m1175.2836 255.16492l0 -11.828125l-1.6875 0l0 13.265625l8.171875 0l0 -1.4375l-6.484375 0zm15.773682 1.4375l1.75 0l0 -0.140625q-0.15625 -0.421875 -0.25 -0.96875q-0.09375 -0.546875 -0.09375 -1.046875l0 -4.578125q0 -0.828125 -0.296875 -1.4375q-0.296875 -0.625 -0.8125 -1.046875q-0.53125 -0.40625 -1.25 -0.609375q-0.71875 -0.203125 -1.5625 -0.203125q-0.921875 0 -1.65625 0.25q-0.71875 0.25 -1.21875 0.65625q-0.5 0.421875 -0.78125 0.953125q-0.265625 0.515625 -0.265625 1.046875l1.6875 0q0 -0.3125 0.140625 -0.59375q0.15625 -0.28125 0.4375 -0.5q0.265625 -0.203125 0.65625 -0.328125q0.40625 -0.140625 0.90625 -0.140625q0.546875 0 0.96875 0.140625q0.4375 0.140625 0.734375 0.390625q0.296875 0.25 0.453125 0.609375q0.171875 0.34375 0.171875 0.796875l0 0.78125l-1.828125 0q-1.03125 0 -1.875 0.203125q-0.828125 0.1875 -1.421875 0.59375q-0.59375 0.40625 -0.921875 1.015625q-0.3125 0.609375 -0.3125 1.421875q0 0.625 0.234375 1.15625q0.25 0.53125 0.6875 0.90625q0.4375 0.40625 1.0625 0.640625q0.640625 0.21875 1.4375 0.21875q0.46875 0 0.890625 -0.109375q0.4375 -0.09375 0.828125 -0.265625q0.375 -0.171875 0.6875 -0.390625q0.3125 -0.234375 0.5625 -0.5q0.03125 0.3125 0.09375 0.609375q0.0625 0.28125 0.15625 0.46875zm-2.984375 -1.28125q-0.484375 0 -0.859375 -0.125q-0.375 -0.140625 -0.625 -0.359375q-0.234375 -0.21875 -0.359375 -0.53125q-0.125 -0.3125 -0.125 -0.671875q0 -0.390625 0.140625 -0.6875q0.140625 -0.296875 0.40625 -0.515625q0.390625 -0.3125 1.03125 -0.453125q0.65625 -0.15625 1.53125 -0.15625l1.5625 0l0 2.0q-0.140625 0.28125 -0.40625 0.5625q-0.25 0.265625 -0.59375 0.46875q-0.34375 0.203125 -0.78125 0.34375q-0.421875 0.125 -0.921875 0.125zm8.476807 -8.578125l-1.515625 0l0 9.859375l1.609375 0l0 -7.84375q0.046875 -0.140625 0.125 -0.265625q0.09375 -0.140625 0.21875 -0.234375q0.15625 -0.125 0.375 -0.1875q0.21875 -0.078125 0.53125 -0.078125q0.265625 0 0.46875 0.078125q0.203125 0.0625 0.34375 0.203125q0.15625 0.15625 0.21875 0.390625q0.0625 0.234375 0.0625 0.546875l0 7.390625l1.609375 0l0 -7.375q0 -0.0625 0 -0.09375q0 -0.046875 0 -0.09375q0.03125 -0.21875 0.109375 -0.40625q0.078125 -0.1875 0.21875 -0.34375q0.15625 -0.125 0.375 -0.203125q0.21875 -0.09375 0.515625 -0.09375q0.28125 0 0.484375 0.078125q0.21875 0.0625 0.375 0.21875q0.140625 0.15625 0.203125 0.390625q0.078125 0.234375 0.078125 0.546875l0 7.375l1.59375 0l0 -7.359375q0 -0.71875 -0.171875 -1.234375q-0.15625 -0.53125 -0.453125 -0.859375q-0.28125 -0.28125 -0.703125 -0.421875q-0.40625 -0.15625 -0.921875 -0.15625q-0.359375 0 -0.6875 0.09375q-0.3125 0.09375 -0.5625 0.25q-0.203125 0.125 -0.375 0.3125q-0.171875 0.1875 -0.296875 0.390625q-0.109375 -0.21875 -0.25 -0.40625q-0.140625 -0.1875 -0.3125 -0.3125q-0.234375 -0.15625 -0.546875 -0.234375q-0.3125 -0.09375 -0.703125 -0.09375q-0.6875 0 -1.1875 0.296875q-0.484375 0.28125 -0.78125 0.8125l-0.046875 -0.9375zm18.773682 5.046875l0 -0.203125q0 -0.765625 -0.125 -1.453125q-0.125 -0.703125 -0.375 -1.28125q-0.234375 -0.515625 -0.546875 -0.921875q-0.3125 -0.421875 -0.703125 -0.703125q-0.4375 -0.3125 -0.984375 -0.484375q-0.53125 -0.171875 -1.15625 -0.171875q-0.515625 0 -0.953125 0.09375q-0.4375 0.09375 -0.796875 0.296875q-0.296875 0.15625 -0.5625 0.375q-0.25 0.203125 -0.453125 0.46875l0 -5.203125l-1.6875 0l0 14.0l1.546875 0l0.078125 -1.125q0.171875 0.21875 0.34375 0.390625q0.1875 0.171875 0.390625 0.3125q0.421875 0.296875 0.9375 0.453125q0.53125 0.15625 1.171875 0.15625q0.546875 0 1.015625 -0.140625q0.484375 -0.140625 0.890625 -0.390625q0.5625 -0.34375 0.953125 -0.890625q0.390625 -0.546875 0.640625 -1.21875q0.1875 -0.53125 0.28125 -1.125q0.09375 -0.59375 0.09375 -1.234375zm-1.6875 -0.203125l0 0.203125q0 0.4375 -0.0625 0.859375q-0.046875 0.40625 -0.15625 0.78125q-0.15625 0.46875 -0.40625 0.875q-0.234375 0.390625 -0.609375 0.640625q-0.265625 0.203125 -0.609375 0.3125q-0.34375 0.09375 -0.765625 0.09375q-0.4375 0 -0.8125 -0.109375q-0.359375 -0.109375 -0.640625 -0.328125q-0.296875 -0.203125 -0.53125 -0.484375q-0.21875 -0.28125 -0.375 -0.609375l0 -4.3125q0.15625 -0.328125 0.375 -0.59375q0.21875 -0.28125 0.515625 -0.5q0.28125 -0.1875 0.640625 -0.296875q0.375 -0.125 0.8125 -0.125q0.390625 0 0.71875 0.09375q0.328125 0.09375 0.59375 0.25q0.390625 0.234375 0.65625 0.640625q0.265625 0.390625 0.421875 0.875q0.125 0.390625 0.171875 0.84375q0.0625 0.4375 0.0625 0.890625zm4.2111816 0l0 0.203125q0 1.046875 0.28125 1.96875q0.28125 0.90625 0.796875 1.59375q0.5 0.671875 1.21875 1.0625q0.734375 0.375 1.625 0.375q0.921875 0 1.59375 -0.3125q0.6875 -0.3125 1.1875 -0.90625l0.0625 1.03125l1.546875 0l0 -14.0l-1.6875 0l0 5.125q-0.46875 -0.578125 -1.140625 -0.859375q-0.65625 -0.296875 -1.546875 -0.296875q-0.890625 0 -1.625 0.375q-0.734375 0.359375 -1.234375 1.03125q-0.515625 0.65625 -0.796875 1.59375q-0.28125 0.921875 -0.28125 2.015625zm1.6875 0.203125l0 -0.203125q0 -0.71875 0.15625 -1.359375q0.15625 -0.65625 0.484375 -1.15625q0.3125 -0.5 0.8125 -0.78125q0.515625 -0.296875 1.21875 -0.296875q0.828125 0 1.375 0.390625q0.5625 0.390625 0.890625 0.984375l0 4.578125q-0.328125 0.640625 -0.890625 1.03125q-0.546875 0.375 -1.390625 0.375q-0.703125 0 -1.203125 -0.28125q-0.5 -0.296875 -0.8125 -0.78125q-0.328125 -0.5 -0.484375 -1.140625q-0.15625 -0.640625 -0.15625 -1.359375zm16.304932 4.8125l1.75 0l0 -0.140625q-0.15625 -0.421875 -0.25 -0.96875q-0.09375 -0.546875 -0.09375 -1.046875l0 -4.578125q0 -0.828125 -0.296875 -1.4375q-0.296875 -0.625 -0.8125 -1.046875q-0.53125 -0.40625 -1.25 -0.609375q-0.71875 -0.203125 -1.5625 -0.203125q-0.921875 0 -1.65625 0.25q-0.71875 0.25 -1.21875 0.65625q-0.5 0.421875 -0.78125 0.953125q-0.265625 0.515625 -0.265625 1.046875l1.6875 0q0 -0.3125 0.140625 -0.59375q0.15625 -0.28125 0.4375 -0.5q0.265625 -0.203125 0.65625 -0.328125q0.40625 -0.140625 0.90625 -0.140625q0.546875 0 0.96875 0.140625q0.4375 0.140625 0.734375 0.390625q0.296875 0.25 0.453125 0.609375q0.171875 0.34375 0.171875 0.796875l0 0.78125l-1.828125 0q-1.03125 0 -1.875 0.203125q-0.828125 0.1875 -1.421875 0.59375q-0.59375 0.40625 -0.921875 1.015625q-0.3125 0.609375 -0.3125 1.421875q0 0.625 0.234375 1.15625q0.25 0.53125 0.6875 0.90625q0.4375 0.40625 1.0625 0.640625q0.640625 0.21875 1.4375 0.21875q0.46875 0 0.890625 -0.109375q0.4375 -0.09375 0.828125 -0.265625q0.375 -0.171875 0.6875 -0.390625q0.3125 -0.234375 0.5625 -0.5q0.03125 0.3125 0.09375 0.609375q0.0625 0.28125 0.15625 0.46875zm-2.984375 -1.28125q-0.484375 0 -0.859375 -0.125q-0.375 -0.140625 -0.625 -0.359375q-0.234375 -0.21875 -0.359375 -0.53125q-0.125 -0.3125 -0.125 -0.671875q0 -0.390625 0.140625 -0.6875q0.140625 -0.296875 0.40625 -0.515625q0.390625 -0.3125 1.03125 -0.453125q0.65625 -0.15625 1.53125 -0.15625l1.5625 0l0 2.0q-0.140625 0.28125 -0.40625 0.5625q-0.25 0.265625 -0.59375 0.46875q-0.34375 0.203125 -0.78125 0.34375q-0.421875 0.125 -0.921875 0.125zm13.164307 1.28125l0 -13.265625l-0.125 0l-5.03125 1.9375l0 1.53125l3.46875 -1.3125l0 11.109375l1.6875 0z" fill-rule="nonzero"/></g></svg>